  0
SECTION
  2
BLOCKS
  0
ENDSEC
  0
SECTION
  2
ENTITIES
  0
LINE
  8
0
 10
11.5628
 20
-10.998
 11
11.6253
 21
-10.9921
  0
LINE
  8
0
 10
11.6253
 20
-10.9921
 11
11.6874
 21
-10.9823
  0
LINE
  8
0
 10
11.6874
 20
-10.9823
 11
11.7487
 21
-10.9686
  0
LINE
  8
0
 10
11.7487
 20
-10.9686
 11
11.809
 21
-10.951
  0
LINE
  8
0
 10
11.809
 20
-10.951
 11
11.8681
 21
-10.9298
  0
LINE
  8
0
 10
11.8681
 20
-10.9298
 11
11.9258
 21
-10.9048
  0
LINE
  8
0
 10
11.9258
 20
-10.9048
 11
11.9818
 21
-10.8763
  0
LINE
  8
0
 10
11.9818
 20
-10.8763
 11
12.0358
 21
-10.8443
  0
LINE
  8
0
 10
12.0358
 20
-10.8443
 11
12.0878
 21
-10.809
  0
LINE
  8
0
 10
12.0878
 20
-10.809
 11
12.1374
 21
-10.7705
  0
LINE
  8
0
 10
12.1374
 20
-10.7705
 11
12.1845
 21
-10.729
  0
LINE
  8
0
 10
12.1845
 20
-10.729
 11
12.229
 21
-10.6845
  0
LINE
  8
0
 10
12.229
 20
-10.6845
 11
12.2705
 21
-10.6374
  0
LINE
  8
0
 10
12.2705
 20
-10.6374
 11
12.309
 21
-10.5878
  0
LINE
  8
0
 10
12.309
 20
-10.5878
 11
12.3443
 21
-10.5358
  0
LINE
  8
0
 10
12.3443
 20
-10.5358
 11
12.3763
 21
-10.4818
  0
LINE
  8
0
 10
12.3763
 20
-10.4818
 11
12.4048
 21
-10.4258
  0
LINE
  8
0
 10
12.4048
 20
-10.4258
 11
12.4298
 21
-10.3681
  0
LINE
  8
0
 10
12.4298
 20
-10.3681
 11
12.451
 21
-10.309
  0
LINE
  8
0
 10
12.451
 20
-10.309
 11
12.4686
 21
-10.2487
  0
LINE
  8
0
 10
12.4686
 20
-10.2487
 11
12.4823
 21
-10.1874
  0
LINE
  8
0
 10
12.4823
 20
-10.1874
 11
12.4921
 21
-10.1253
  0
LINE
  8
0
 10
12.4921
 20
-10.1253
 11
12.498
 21
-10.0628
  0
LINE
  8
0
 10
12.498
 20
-10.0628
 11
12.5
 21
-10
  0
LINE
  8
0
 10
12.5
 20
-10
 11
12.5
 21
10
  0
LINE
  8
0
 10
12.5
 20
10
 11
12.498
 21
10.0628
  0
LINE
  8
0
 10
12.498
 20
10.0628
 11
12.4921
 21
10.1253
  0
LINE
  8
0
 10
12.4921
 20
10.1253
 11
12.4823
 21
10.1874
  0
LINE
  8
0
 10
12.4823
 20
10.1874
 11
12.4686
 21
10.2487
  0
LINE
  8
0
 10
12.4686
 20
10.2487
 11
12.451
 21
10.309
  0
LINE
  8
0
 10
12.451
 20
10.309
 11
12.4298
 21
10.3681
  0
LINE
  8
0
 10
12.4298
 20
10.3681
 11
12.4048
 21
10.4258
  0
LINE
  8
0
 10
12.4048
 20
10.4258
 11
12.3763
 21
10.4818
  0
LINE
  8
0
 10
12.3763
 20
10.4818
 11
12.3443
 21
10.5358
  0
LINE
  8
0
 10
12.3443
 20
10.5358
 11
12.309
 21
10.5878
  0
LINE
  8
0
 10
12.309
 20
10.5878
 11
12.2705
 21
10.6374
  0
LINE
  8
0
 10
12.2705
 20
10.6374
 11
12.229
 21
10.6845
  0
LINE
  8
0
 10
12.229
 20
10.6845
 11
12.1845
 21
10.729
  0
LINE
  8
0
 10
12.1845
 20
10.729
 11
12.1374
 21
10.7705
  0
LINE
  8
0
 10
12.1374
 20
10.7705
 11
12.0878
 21
10.809
  0
LINE
  8
0
 10
12.0878
 20
10.809
 11
12.0358
 21
10.8443
  0
LINE
  8
0
 10
12.0358
 20
10.8443
 11
11.9818
 21
10.8763
  0
LINE
  8
0
 10
11.9818
 20
10.8763
 11
11.9258
 21
10.9048
  0
LINE
  8
0
 10
11.9258
 20
10.9048
 11
11.8681
 21
10.9298
  0
LINE
  8
0
 10
11.8681
 20
10.9298
 11
11.809
 21
10.951
  0
LINE
  8
0
 10
11.809
 20
10.951
 11
11.7487
 21
10.9686
  0
LINE
  8
0
 10
11.7487
 20
10.9686
 11
11.6874
 21
10.9823
  0
LINE
  8
0
 10
11.6874
 20
10.9823
 11
11.6253
 21
10.9921
  0
LINE
  8
0
 10
11.6253
 20
10.9921
 11
11.5628
 21
10.998
  0
LINE
  8
0
 10
11.5628
 20
10.998
 11
11.5
 21
11
  0
LINE
  8
0
 10
11.5
 20
11
 11
-7.5
 21
11
  0
LINE
  8
0
 10
-7.5
 20
11
 11
-7.56279
 21
10.998
  0
LINE
  8
0
 10
-7.56279
 20
10.998
 11
-7.62532
 21
10.9921
  0
LINE
  8
0
 10
-7.62532
 20
10.9921
 11
-7.68738
 21
10.9823
  0
LINE
  8
0
 10
-7.68738
 20
10.9823
 11
-7.74869
 21
10.9686
  0
LINE
  8
0
 10
-7.74869
 20
10.9686
 11
-7.80901
 21
10.951
  0
LINE
  8
0
 10
-7.80901
 20
10.951
 11
-7.86812
 21
10.9298
  0
LINE
  8
0
 10
-7.86812
 20
10.9298
 11
-7.92577
 21
10.9048
  0
LINE
  8
0
 10
-7.92577
 20
10.9048
 11
-7.98175
 21
10.8763
  0
LINE
  8
0
 10
-7.98175
 20
10.8763
 11
-8.03581
 21
10.8443
  0
LINE
  8
0
 10
-8.03581
 20
10.8443
 11
-8.08778
 21
10.809
  0
LINE
  8
0
 10
-8.08778
 20
10.809
 11
-8.13742
 21
10.7705
  0
LINE
  8
0
 10
-8.13742
 20
10.7705
 11
-8.18454
 21
10.729
  0
LINE
  8
0
 10
-8.18454
 20
10.729
 11
-8.22896
 21
10.6845
  0
LINE
  8
0
 10
-8.22896
 20
10.6845
 11
-8.27051
 21
10.6374
  0
LINE
  8
0
 10
-8.27051
 20
10.6374
 11
-8.30901
 21
10.5878
  0
LINE
  8
0
 10
-8.30901
 20
10.5878
 11
-8.34431
 21
10.5358
  0
LINE
  8
0
 10
-8.34431
 20
10.5358
 11
-8.3763
 21
10.4818
  0
LINE
  8
0
 10
-8.3763
 20
10.4818
 11
-8.40482
 21
10.4258
  0
LINE
  8
0
 10
-8.40482
 20
10.4258
 11
-8.42976
 21
10.3681
  0
LINE
  8
0
 10
-8.42976
 20
10.3681
 11
-8.45105
 21
10.309
  0
LINE
  8
0
 10
-8.45105
 20
10.309
 11
-8.46858
 21
10.2487
  0
LINE
  8
0
 10
-8.46858
 20
10.2487
 11
-8.48228
 21
10.1874
  0
LINE
  8
0
 10
-8.48228
 20
10.1874
 11
-8.49211
 21
10.1253
  0
LINE
  8
0
 10
-8.49211
 20
10.1253
 11
-8.49802
 21
10.0628
  0
LINE
  8
0
 10
-8.49802
 20
10.0628
 11
-8.5
 21
10
  0
LINE
  8
0
 10
-8.5
 20
10
 11
-8.5
 21
-10
  0
LINE
  8
0
 10
-8.5
 20
-10
 11
-8.49802
 21
-10.0628
  0
LINE
  8
0
 10
-8.49802
 20
-10.0628
 11
-8.49211
 21
-10.1253
  0
LINE
  8
0
 10
-8.49211
 20
-10.1253
 11
-8.48228
 21
-10.1874
  0
LINE
  8
0
 10
-8.48228
 20
-10.1874
 11
-8.46858
 21
-10.2487
  0
LINE
  8
0
 10
-8.46858
 20
-10.2487
 11
-8.45105
 21
-10.309
  0
LINE
  8
0
 10
-8.45105
 20
-10.309
 11
-8.42976
 21
-10.3681
  0
LINE
  8
0
 10
-8.42976
 20
-10.3681
 11
-8.40482
 21
-10.4258
  0
LINE
  8
0
 10
-8.40482
 20
-10.4258
 11
-8.3763
 21
-10.4818
  0
LINE
  8
0
 10
-8.3763
 20
-10.4818
 11
-8.34431
 21
-10.5358
  0
LINE
  8
0
 10
-8.34431
 20
-10.5358
 11
-8.30901
 21
-10.5878
  0
LINE
  8
0
 10
-8.30901
 20
-10.5878
 11
-8.27051
 21
-10.6374
  0
LINE
  8
0
 10
-8.27051
 20
-10.6374
 11
-8.22896
 21
-10.6845
  0
LINE
  8
0
 10
-8.22896
 20
-10.6845
 11
-8.18454
 21
-10.729
  0
LINE
  8
0
 10
-8.18454
 20
-10.729
 11
-8.13742
 21
-10.7705
  0
LINE
  8
0
 10
-8.13742
 20
-10.7705
 11
-8.08778
 21
-10.809
  0
LINE
  8
0
 10
-8.08778
 20
-10.809
 11
-8.03581
 21
-10.8443
  0
LINE
  8
0
 10
-8.03581
 20
-10.8443
 11
-7.98175
 21
-10.8763
  0
LINE
  8
0
 10
-7.98175
 20
-10.8763
 11
-7.92577
 21
-10.9048
  0
LINE
  8
0
 10
-7.92577
 20
-10.9048
 11
-7.86812
 21
-10.9298
  0
LINE
  8
0
 10
-7.86812
 20
-10.9298
 11
-7.80901
 21
-10.951
  0
LINE
  8
0
 10
-7.80901
 20
-10.951
 11
-7.74869
 21
-10.9686
  0
LINE
  8
0
 10
-7.74869
 20
-10.9686
 11
-7.68738
 21
-10.9823
  0
LINE
  8
0
 10
-7.68738
 20
-10.9823
 11
-7.62532
 21
-10.9921
  0
LINE
  8
0
 10
-7.62532
 20
-10.9921
 11
-7.56279
 21
-10.998
  0
LINE
  8
0
 10
-7.56279
 20
-10.998
 11
-7.5
 21
-11
  0
LINE
  8
0
 10
-7.5
 20
-11
 11
11.5
 21
-11
  0
LINE
  8
0
 10
11.5
 20
-11
 11
11.5628
 21
-10.998
  0
LINE
  8
0
 10
-0.315811
 20
-5.02007
 11
-0.630402
 21
-4.99033
  0
LINE
  8
0
 10
-0.630402
 20
-4.99033
 11
-0.942505
 21
-4.9409
  0
LINE
  8
0
 10
-0.942505
 20
-4.9409
 11
-1.25089
 21
-4.87196
  0
LINE
  8
0
 10
-1.25089
 20
-4.87196
 11
-1.55434
 21
-4.78381
  0
LINE
  8
0
 10
-1.55434
 20
-4.78381
 11
-1.85164
 21
-4.67677
  0
LINE
  8
0
 10
-1.85164
 20
-4.67677
 11
-2.14165
 21
-4.55127
  0
LINE
  8
0
 10
-2.14165
 20
-4.55127
 11
-2.4232
 21
-4.40782
  0
LINE
  8
0
 10
-2.4232
 20
-4.40782
 11
-2.69519
 21
-4.24696
  0
LINE
  8
0
 10
-2.69519
 20
-4.24696
 11
-2.95654
 21
-4.06935
  0
LINE
  8
0
 10
-2.95654
 20
-4.06935
 11
-3.20622
 21
-3.87567
  0
LINE
  8
0
 10
-3.20622
 20
-3.87567
 11
-3.44325
 21
-3.6667
  0
LINE
  8
0
 10
-3.44325
 20
-3.6667
 11
-3.6667
 21
-3.44327
  0
LINE
  8
0
 10
-3.6667
 20
-3.44327
 11
-3.87567
 21
-3.20624
  0
LINE
  8
0
 10
-3.87567
 20
-3.20624
 11
-3.98
 21
-3.07175
  0
LINE
  8
0
 10
-3.98
 20
-3.07175
 11
-3.98
 21
3.07173
  0
LINE
  8
0
 10
-3.98
 20
3.07173
 11
-3.87567
 21
3.20622
  0
LINE
  8
0
 10
-3.87567
 20
3.20622
 11
-3.6667
 21
3.44325
  0
LINE
  8
0
 10
-3.6667
 20
3.44325
 11
-3.44327
 21
3.6667
  0
LINE
  8
0
 10
-3.44327
 20
3.6667
 11
-3.20624
 21
3.87567
  0
LINE
  8
0
 10
-3.20624
 20
3.87567
 11
-2.95656
 21
4.06935
  0
LINE
  8
0
 10
-2.95656
 20
4.06935
 11
-2.69521
 21
4.24696
  0
LINE
  8
0
 10
-2.69521
 20
4.24696
 11
-2.42322
 21
4.40782
  0
LINE
  8
0
 10
-2.42322
 20
4.40782
 11
-2.14166
 21
4.55127
  0
LINE
  8
0
 10
-2.14166
 20
4.55127
 11
-1.85165
 21
4.67677
  0
LINE
  8
0
 10
-1.85165
 20
4.67677
 11
-1.55435
 21
4.78381
  0
LINE
  8
0
 10
-1.55435
 20
4.78381
 11
-1.2509
 21
4.87196
  0
LINE
  8
0
 10
-1.2509
 20
4.87196
 11
-0.94252
 21
4.9409
  0
LINE
  8
0
 10
-0.94252
 20
4.9409
 11
-0.630417
 21
4.99033
  0
LINE
  8
0
 10
-0.630417
 20
4.99033
 11
-0.315826
 21
5.02007
  0
LINE
  8
0
 10
-0.315826
 20
5.02007
 11
0
 21
5.03
  0
LINE
  8
0
 10
0
 20
5.03
 11
0.315811
 21
5.02007
  0
LINE
  8
0
 10
0.315811
 20
5.02007
 11
0.630402
 21
4.99033
  0
LINE
  8
0
 10
0.630402
 20
4.99033
 11
0.942505
 21
4.9409
  0
LINE
  8
0
 10
0.942505
 20
4.9409
 11
1.25089
 21
4.87196
  0
LINE
  8
0
 10
1.25089
 20
4.87196
 11
1.55434
 21
4.78381
  0
LINE
  8
0
 10
1.55434
 20
4.78381
 11
1.85164
 21
4.67677
  0
LINE
  8
0
 10
1.85164
 20
4.67677
 11
2.14165
 21
4.55127
  0
LINE
  8
0
 10
2.14165
 20
4.55127
 11
2.4232
 21
4.40782
  0
LINE
  8
0
 10
2.4232
 20
4.40782
 11
2.69519
 21
4.24696
  0
LINE
  8
0
 10
2.69519
 20
4.24696
 11
2.95654
 21
4.06935
  0
LINE
  8
0
 10
2.95654
 20
4.06935
 11
3.20622
 21
3.87567
  0
LINE
  8
0
 10
3.20622
 20
3.87567
 11
3.44325
 21
3.6667
  0
LINE
  8
0
 10
3.44325
 20
3.6667
 11
3.6667
 21
3.44327
  0
LINE
  8
0
 10
3.6667
 20
3.44327
 11
3.87567
 21
3.20624
  0
LINE
  8
0
 10
3.87567
 20
3.20624
 11
4.06935
 21
2.95656
  0
LINE
  8
0
 10
4.06935
 20
2.95656
 11
4.24696
 21
2.69521
  0
LINE
  8
0
 10
4.24696
 20
2.69521
 11
4.40782
 21
2.42322
  0
LINE
  8
0
 10
4.40782
 20
2.42322
 11
4.55127
 21
2.14166
  0
LINE
  8
0
 10
4.55127
 20
2.14166
 11
4.67677
 21
1.85165
  0
LINE
  8
0
 10
4.67677
 20
1.85165
 11
4.78381
 21
1.55435
  0
LINE
  8
0
 10
4.78381
 20
1.55435
 11
4.87196
 21
1.2509
  0
LINE
  8
0
 10
4.87196
 20
1.2509
 11
4.9409
 21
0.94252
  0
LINE
  8
0
 10
4.9409
 20
0.94252
 11
4.99033
 21
0.630417
  0
LINE
  8
0
 10
4.99033
 20
0.630417
 11
5.02007
 21
0.315826
  0
LINE
  8
0
 10
5.02007
 20
0.315826
 11
5.03
 21
0
  0
LINE
  8
0
 10
5.03
 20
0
 11
5.02007
 21
-0.315811
  0
LINE
  8
0
 10
5.02007
 20
-0.315811
 11
4.99033
 21
-0.630402
  0
LINE
  8
0
 10
4.99033
 20
-0.630402
 11
4.9409
 21
-0.942505
  0
LINE
  8
0
 10
4.9409
 20
-0.942505
 11
4.87196
 21
-1.25089
  0
LINE
  8
0
 10
4.87196
 20
-1.25089
 11
4.78381
 21
-1.55434
  0
LINE
  8
0
 10
4.78381
 20
-1.55434
 11
4.67677
 21
-1.85164
  0
LINE
  8
0
 10
4.67677
 20
-1.85164
 11
4.55127
 21
-2.14165
  0
LINE
  8
0
 10
4.55127
 20
-2.14165
 11
4.40782
 21
-2.4232
  0
LINE
  8
0
 10
4.40782
 20
-2.4232
 11
4.24696
 21
-2.69519
  0
LINE
  8
0
 10
4.24696
 20
-2.69519
 11
4.06935
 21
-2.95654
  0
LINE
  8
0
 10
4.06935
 20
-2.95654
 11
3.87567
 21
-3.20622
  0
LINE
  8
0
 10
3.87567
 20
-3.20622
 11
3.6667
 21
-3.44325
  0
LINE
  8
0
 10
3.6667
 20
-3.44325
 11
3.44327
 21
-3.6667
  0
LINE
  8
0
 10
3.44327
 20
-3.6667
 11
3.20624
 21
-3.87567
  0
LINE
  8
0
 10
3.20624
 20
-3.87567
 11
2.95656
 21
-4.06935
  0
LINE
  8
0
 10
2.95656
 20
-4.06935
 11
2.69521
 21
-4.24696
  0
LINE
  8
0
 10
2.69521
 20
-4.24696
 11
2.42322
 21
-4.40782
  0
LINE
  8
0
 10
2.42322
 20
-4.40782
 11
2.14166
 21
-4.55127
  0
LINE
  8
0
 10
2.14166
 20
-4.55127
 11
1.85165
 21
-4.67677
  0
LINE
  8
0
 10
1.85165
 20
-4.67677
 11
1.55435
 21
-4.78381
  0
LINE
  8
0
 10
1.55435
 20
-4.78381
 11
1.2509
 21
-4.87196
  0
LINE
  8
0
 10
1.2509
 20
-4.87196
 11
0.94252
 21
-4.9409
  0
LINE
  8
0
 10
0.94252
 20
-4.9409
 11
0.630417
 21
-4.99033
  0
LINE
  8
0
 10
0.630417
 20
-4.99033
 11
0.315826
 21
-5.02007
  0
LINE
  8
0
 10
0.315826
 20
-5.02007
 11
0
 21
-5.03
  0
LINE
  8
0
 10
0
 20
-5.03
 11
-0.315811
 21
-5.02007
  0
ENDSEC
  0
SECTION
  2
OBJECTS
  0
DICTIONARY
  0
ENDSEC
  0
EOF
