  0
SECTION
  2
BLOCKS
  0
ENDSEC
  0
SECTION
  2
ENTITIES
  0
LINE
  8
0
 10
33.5
 20
28.25
 11
33.498
 21
28.3128
  0
LINE
  8
0
 10
33.498
 20
28.3128
 11
33.4921
 21
28.3753
  0
LINE
  8
0
 10
33.4921
 20
28.3753
 11
33.4823
 21
28.4374
  0
LINE
  8
0
 10
33.4823
 20
28.4374
 11
33.4686
 21
28.4987
  0
LINE
  8
0
 10
33.4686
 20
28.4987
 11
33.4511
 21
28.559
  0
LINE
  8
0
 10
33.4511
 20
28.559
 11
33.4298
 21
28.6181
  0
LINE
  8
0
 10
33.4298
 20
28.6181
 11
33.4048
 21
28.6758
  0
LINE
  8
0
 10
33.4048
 20
28.6758
 11
33.3763
 21
28.7318
  0
LINE
  8
0
 10
33.3763
 20
28.7318
 11
33.3443
 21
28.7858
  0
LINE
  8
0
 10
33.3443
 20
28.7858
 11
33.309
 21
28.8378
  0
LINE
  8
0
 10
33.309
 20
28.8378
 11
33.2705
 21
28.8874
  0
LINE
  8
0
 10
33.2705
 20
28.8874
 11
33.229
 21
28.9345
  0
LINE
  8
0
 10
33.229
 20
28.9345
 11
33.1845
 21
28.979
  0
LINE
  8
0
 10
33.1845
 20
28.979
 11
33.1374
 21
29.0205
  0
LINE
  8
0
 10
33.1374
 20
29.0205
 11
33.0878
 21
29.059
  0
LINE
  8
0
 10
33.0878
 20
29.059
 11
33.0358
 21
29.0943
  0
LINE
  8
0
 10
33.0358
 20
29.0943
 11
32.9818
 21
29.1263
  0
LINE
  8
0
 10
32.9818
 20
29.1263
 11
32.9258
 21
29.1548
  0
LINE
  8
0
 10
32.9258
 20
29.1548
 11
32.8681
 21
29.1798
  0
LINE
  8
0
 10
32.8681
 20
29.1798
 11
32.809
 21
29.2011
  0
LINE
  8
0
 10
32.809
 20
29.2011
 11
32.7487
 21
29.2186
  0
LINE
  8
0
 10
32.7487
 20
29.2186
 11
32.6874
 21
29.2323
  0
LINE
  8
0
 10
32.6874
 20
29.2323
 11
32.6253
 21
29.2421
  0
LINE
  8
0
 10
32.6253
 20
29.2421
 11
32.5628
 21
29.248
  0
LINE
  8
0
 10
32.5628
 20
29.248
 11
32.5
 21
29.25
  0
LINE
  8
0
 10
32.5
 20
29.25
 11
32.4372
 21
29.248
  0
LINE
  8
0
 10
32.4372
 20
29.248
 11
32.3747
 21
29.2421
  0
LINE
  8
0
 10
32.3747
 20
29.2421
 11
32.3126
 21
29.2323
  0
LINE
  8
0
 10
32.3126
 20
29.2323
 11
32.2513
 21
29.2186
  0
LINE
  8
0
 10
32.2513
 20
29.2186
 11
32.191
 21
29.2011
  0
LINE
  8
0
 10
32.191
 20
29.2011
 11
32.1319
 21
29.1798
  0
LINE
  8
0
 10
32.1319
 20
29.1798
 11
32.0742
 21
29.1548
  0
LINE
  8
0
 10
32.0742
 20
29.1548
 11
32.0182
 21
29.1263
  0
LINE
  8
0
 10
32.0182
 20
29.1263
 11
31.9642
 21
29.0943
  0
LINE
  8
0
 10
31.9642
 20
29.0943
 11
31.9122
 21
29.059
  0
LINE
  8
0
 10
31.9122
 20
29.059
 11
31.8626
 21
29.0205
  0
LINE
  8
0
 10
31.8626
 20
29.0205
 11
31.8155
 21
28.979
  0
LINE
  8
0
 10
31.8155
 20
28.979
 11
31.771
 21
28.9345
  0
LINE
  8
0
 10
31.771
 20
28.9345
 11
31.7295
 21
28.8874
  0
LINE
  8
0
 10
31.7295
 20
28.8874
 11
31.691
 21
28.8378
  0
LINE
  8
0
 10
31.691
 20
28.8378
 11
31.6557
 21
28.7858
  0
LINE
  8
0
 10
31.6557
 20
28.7858
 11
31.6237
 21
28.7318
  0
LINE
  8
0
 10
31.6237
 20
28.7318
 11
31.5952
 21
28.6758
  0
LINE
  8
0
 10
31.5952
 20
28.6758
 11
31.5702
 21
28.6181
  0
LINE
  8
0
 10
31.5702
 20
28.6181
 11
31.5489
 21
28.559
  0
LINE
  8
0
 10
31.5489
 20
28.559
 11
31.5314
 21
28.4987
  0
LINE
  8
0
 10
31.5314
 20
28.4987
 11
31.5177
 21
28.4374
  0
LINE
  8
0
 10
31.5177
 20
28.4374
 11
31.5079
 21
28.3753
  0
LINE
  8
0
 10
31.5079
 20
28.3753
 11
31.502
 21
28.3128
  0
LINE
  8
0
 10
31.502
 20
28.3128
 11
31.5
 21
28.25
  0
LINE
  8
0
 10
31.5
 20
28.25
 11
31.502
 21
28.1872
  0
LINE
  8
0
 10
31.502
 20
28.1872
 11
31.5079
 21
28.1247
  0
LINE
  8
0
 10
31.5079
 20
28.1247
 11
31.5177
 21
28.0626
  0
LINE
  8
0
 10
31.5177
 20
28.0626
 11
31.5314
 21
28.0013
  0
LINE
  8
0
 10
31.5314
 20
28.0013
 11
31.5489
 21
27.941
  0
LINE
  8
0
 10
31.5489
 20
27.941
 11
31.5702
 21
27.8819
  0
LINE
  8
0
 10
31.5702
 20
27.8819
 11
31.5952
 21
27.8242
  0
LINE
  8
0
 10
31.5952
 20
27.8242
 11
31.6237
 21
27.7682
  0
LINE
  8
0
 10
31.6237
 20
27.7682
 11
31.6557
 21
27.7142
  0
LINE
  8
0
 10
31.6557
 20
27.7142
 11
31.691
 21
27.6622
  0
LINE
  8
0
 10
31.691
 20
27.6622
 11
31.7295
 21
27.6126
  0
LINE
  8
0
 10
31.7295
 20
27.6126
 11
31.771
 21
27.5655
  0
LINE
  8
0
 10
31.771
 20
27.5655
 11
31.8155
 21
27.521
  0
LINE
  8
0
 10
31.8155
 20
27.521
 11
31.8626
 21
27.4795
  0
LINE
  8
0
 10
31.8626
 20
27.4795
 11
31.9122
 21
27.441
  0
LINE
  8
0
 10
31.9122
 20
27.441
 11
31.9642
 21
27.4057
  0
LINE
  8
0
 10
31.9642
 20
27.4057
 11
32.0182
 21
27.3737
  0
LINE
  8
0
 10
32.0182
 20
27.3737
 11
32.0742
 21
27.3452
  0
LINE
  8
0
 10
32.0742
 20
27.3452
 11
32.1319
 21
27.3202
  0
LINE
  8
0
 10
32.1319
 20
27.3202
 11
32.191
 21
27.2989
  0
LINE
  8
0
 10
32.191
 20
27.2989
 11
32.2513
 21
27.2814
  0
LINE
  8
0
 10
32.2513
 20
27.2814
 11
32.3126
 21
27.2677
  0
LINE
  8
0
 10
32.3126
 20
27.2677
 11
32.3747
 21
27.2579
  0
LINE
  8
0
 10
32.3747
 20
27.2579
 11
32.4372
 21
27.252
  0
LINE
  8
0
 10
32.4372
 20
27.252
 11
32.5
 21
27.25
  0
LINE
  8
0
 10
32.5
 20
27.25
 11
32.5628
 21
27.252
  0
LINE
  8
0
 10
32.5628
 20
27.252
 11
32.6253
 21
27.2579
  0
LINE
  8
0
 10
32.6253
 20
27.2579
 11
32.6874
 21
27.2677
  0
LINE
  8
0
 10
32.6874
 20
27.2677
 11
32.7487
 21
27.2814
  0
LINE
  8
0
 10
32.7487
 20
27.2814
 11
32.809
 21
27.2989
  0
LINE
  8
0
 10
32.809
 20
27.2989
 11
32.8681
 21
27.3202
  0
LINE
  8
0
 10
32.8681
 20
27.3202
 11
32.9258
 21
27.3452
  0
LINE
  8
0
 10
32.9258
 20
27.3452
 11
32.9818
 21
27.3737
  0
LINE
  8
0
 10
32.9818
 20
27.3737
 11
33.0358
 21
27.4057
  0
LINE
  8
0
 10
33.0358
 20
27.4057
 11
33.0878
 21
27.441
  0
LINE
  8
0
 10
33.0878
 20
27.441
 11
33.1374
 21
27.4795
  0
LINE
  8
0
 10
33.1374
 20
27.4795
 11
33.1845
 21
27.521
  0
LINE
  8
0
 10
33.1845
 20
27.521
 11
33.229
 21
27.5655
  0
LINE
  8
0
 10
33.229
 20
27.5655
 11
33.2705
 21
27.6126
  0
LINE
  8
0
 10
33.2705
 20
27.6126
 11
33.309
 21
27.6622
  0
LINE
  8
0
 10
33.309
 20
27.6622
 11
33.3443
 21
27.7142
  0
LINE
  8
0
 10
33.3443
 20
27.7142
 11
33.3763
 21
27.7682
  0
LINE
  8
0
 10
33.3763
 20
27.7682
 11
33.4048
 21
27.8242
  0
LINE
  8
0
 10
33.4048
 20
27.8242
 11
33.4298
 21
27.8819
  0
LINE
  8
0
 10
33.4298
 20
27.8819
 11
33.4511
 21
27.941
  0
LINE
  8
0
 10
33.4511
 20
27.941
 11
33.4686
 21
28.0013
  0
LINE
  8
0
 10
33.4686
 20
28.0013
 11
33.4823
 21
28.0626
  0
LINE
  8
0
 10
33.4823
 20
28.0626
 11
33.4921
 21
28.1247
  0
LINE
  8
0
 10
33.4921
 20
28.1247
 11
33.498
 21
28.1872
  0
LINE
  8
0
 10
33.498
 20
28.1872
 11
33.5
 21
28.25
  0
ENDSEC
  0
SECTION
  2
OBJECTS
  0
DICTIONARY
  0
ENDSEC
  0
EOF
