  0
SECTION
  2
BLOCKS
  0
ENDSEC
  0
SECTION
  2
ENTITIES
  0
LINE
  8
0
 10
62.1884
 20
0.00590515
 11
62.376
 21
0.0236511
  0
LINE
  8
0
 10
62.376
 20
0.0236511
 11
62.5621
 21
0.0531311
  0
LINE
  8
0
 10
62.5621
 20
0.0531311
 11
62.7461
 21
0.0942383
  0
LINE
  8
0
 10
62.7461
 20
0.0942383
 11
62.927
 21
0.14682
  0
LINE
  8
0
 10
62.927
 20
0.14682
 11
63.1044
 21
0.210663
  0
LINE
  8
0
 10
63.1044
 20
0.210663
 11
63.2773
 21
0.285507
  0
LINE
  8
0
 10
63.2773
 20
0.285507
 11
63.4453
 21
0.371078
  0
LINE
  8
0
 10
63.4453
 20
0.371078
 11
63.6075
 21
0.46701
  0
LINE
  8
0
 10
63.6075
 20
0.46701
 11
63.7634
 21
0.572937
  0
LINE
  8
0
 10
63.7634
 20
0.572937
 11
63.9123
 21
0.688446
  0
LINE
  8
0
 10
63.9123
 20
0.688446
 11
64.0536
 21
0.81308
  0
LINE
  8
0
 10
64.0536
 20
0.81308
 11
64.1869
 21
0.94635
  0
LINE
  8
0
 10
64.1869
 20
0.94635
 11
64.3115
 21
1.08772
  0
LINE
  8
0
 10
64.3115
 20
1.08772
 11
64.427
 21
1.23663
  0
LINE
  8
0
 10
64.427
 20
1.23663
 11
64.533
 21
1.39252
  0
LINE
  8
0
 10
64.533
 20
1.39252
 11
64.6289
 21
1.55473
  0
LINE
  8
0
 10
64.6289
 20
1.55473
 11
64.7145
 21
1.72266
  0
LINE
  8
0
 10
64.7145
 20
1.72266
 11
64.7893
 21
1.89561
  0
LINE
  8
0
 10
64.7893
 20
1.89561
 11
64.8532
 21
2.07294
  0
LINE
  8
0
 10
64.8532
 20
2.07294
 11
64.9057
 21
2.25392
  0
LINE
  8
0
 10
64.9057
 20
2.25392
 11
64.9469
 21
2.43785
  0
LINE
  8
0
 10
64.9469
 20
2.43785
 11
64.9763
 21
2.62399
  0
LINE
  8
0
 10
64.9763
 20
2.62399
 11
64.9941
 21
2.81161
  0
LINE
  8
0
 10
64.9941
 20
2.81161
 11
65
 21
3
  0
LINE
  8
0
 10
65
 20
3
 11
65
 21
53.5
  0
LINE
  8
0
 10
65
 20
53.5
 11
64.9941
 21
53.6884
  0
LINE
  8
0
 10
64.9941
 20
53.6884
 11
64.9763
 21
53.876
  0
LINE
  8
0
 10
64.9763
 20
53.876
 11
64.9469
 21
54.0621
  0
LINE
  8
0
 10
64.9469
 20
54.0621
 11
64.9057
 21
54.2461
  0
LINE
  8
0
 10
64.9057
 20
54.2461
 11
64.8532
 21
54.427
  0
LINE
  8
0
 10
64.8532
 20
54.427
 11
64.7893
 21
54.6044
  0
LINE
  8
0
 10
64.7893
 20
54.6044
 11
64.7145
 21
54.7773
  0
LINE
  8
0
 10
64.7145
 20
54.7773
 11
64.6289
 21
54.9453
  0
LINE
  8
0
 10
64.6289
 20
54.9453
 11
64.533
 21
55.1075
  0
LINE
  8
0
 10
64.533
 20
55.1075
 11
64.427
 21
55.2634
  0
LINE
  8
0
 10
64.427
 20
55.2634
 11
64.3115
 21
55.4123
  0
LINE
  8
0
 10
64.3115
 20
55.4123
 11
64.1869
 21
55.5536
  0
LINE
  8
0
 10
64.1869
 20
55.5536
 11
64.0536
 21
55.6869
  0
LINE
  8
0
 10
64.0536
 20
55.6869
 11
63.9123
 21
55.8115
  0
LINE
  8
0
 10
63.9123
 20
55.8115
 11
63.7634
 21
55.927
  0
LINE
  8
0
 10
63.7634
 20
55.927
 11
63.6075
 21
56.033
  0
LINE
  8
0
 10
63.6075
 20
56.033
 11
63.4453
 21
56.1289
  0
LINE
  8
0
 10
63.4453
 20
56.1289
 11
63.2773
 21
56.2145
  0
LINE
  8
0
 10
63.2773
 20
56.2145
 11
63.1044
 21
56.2893
  0
LINE
  8
0
 10
63.1044
 20
56.2893
 11
62.927
 21
56.3532
  0
LINE
  8
0
 10
62.927
 20
56.3532
 11
62.7461
 21
56.4057
  0
LINE
  8
0
 10
62.7461
 20
56.4057
 11
62.5621
 21
56.4469
  0
LINE
  8
0
 10
62.5621
 20
56.4469
 11
62.376
 21
56.4763
  0
LINE
  8
0
 10
62.376
 20
56.4763
 11
62.1884
 21
56.4941
  0
LINE
  8
0
 10
62.1884
 20
56.4941
 11
62
 21
56.5
  0
LINE
  8
0
 10
62
 20
56.5
 11
3
 21
56.5
  0
LINE
  8
0
 10
3
 20
56.5
 11
2.81161
 21
56.4941
  0
LINE
  8
0
 10
2.81161
 20
56.4941
 11
2.62399
 21
56.4763
  0
LINE
  8
0
 10
2.62399
 20
56.4763
 11
2.43785
 21
56.4469
  0
LINE
  8
0
 10
2.43785
 20
56.4469
 11
2.25392
 21
56.4057
  0
LINE
  8
0
 10
2.25392
 20
56.4057
 11
2.07294
 21
56.3532
  0
LINE
  8
0
 10
2.07294
 20
56.3532
 11
1.89561
 21
56.2893
  0
LINE
  8
0
 10
1.89561
 20
56.2893
 11
1.72266
 21
56.2145
  0
LINE
  8
0
 10
1.72266
 20
56.2145
 11
1.55473
 21
56.1289
  0
LINE
  8
0
 10
1.55473
 20
56.1289
 11
1.39252
 21
56.033
  0
LINE
  8
0
 10
1.39252
 20
56.033
 11
1.23663
 21
55.927
  0
LINE
  8
0
 10
1.23663
 20
55.927
 11
1.08772
 21
55.8115
  0
LINE
  8
0
 10
1.08772
 20
55.8115
 11
0.94635
 21
55.6869
  0
LINE
  8
0
 10
0.94635
 20
55.6869
 11
0.81308
 21
55.5536
  0
LINE
  8
0
 10
0.81308
 20
55.5536
 11
0.688446
 21
55.4123
  0
LINE
  8
0
 10
0.688446
 20
55.4123
 11
0.572937
 21
55.2634
  0
LINE
  8
0
 10
0.572937
 20
55.2634
 11
0.46701
 21
55.1075
  0
LINE
  8
0
 10
0.46701
 20
55.1075
 11
0.371078
 21
54.9453
  0
LINE
  8
0
 10
0.371078
 20
54.9453
 11
0.285507
 21
54.7773
  0
LINE
  8
0
 10
0.285507
 20
54.7773
 11
0.210663
 21
54.6044
  0
LINE
  8
0
 10
0.210663
 20
54.6044
 11
0.14682
 21
54.427
  0
LINE
  8
0
 10
0.14682
 20
54.427
 11
0.0942383
 21
54.2461
  0
LINE
  8
0
 10
0.0942383
 20
54.2461
 11
0.0531311
 21
54.0621
  0
LINE
  8
0
 10
0.0531311
 20
54.0621
 11
0.0236511
 21
53.876
  0
LINE
  8
0
 10
0.0236511
 20
53.876
 11
0.00590515
 21
53.6884
  0
LINE
  8
0
 10
0.00590515
 20
53.6884
 11
0
 21
53.5
  0
LINE
  8
0
 10
0
 20
53.5
 11
0
 21
3
  0
LINE
  8
0
 10
0
 20
3
 11
0.00590515
 21
2.81161
  0
LINE
  8
0
 10
0.00590515
 20
2.81161
 11
0.0236511
 21
2.62399
  0
LINE
  8
0
 10
0.0236511
 20
2.62399
 11
0.0531311
 21
2.43785
  0
LINE
  8
0
 10
0.0531311
 20
2.43785
 11
0.0942383
 21
2.25392
  0
LINE
  8
0
 10
0.0942383
 20
2.25392
 11
0.14682
 21
2.07294
  0
LINE
  8
0
 10
0.14682
 20
2.07294
 11
0.210663
 21
1.89561
  0
LINE
  8
0
 10
0.210663
 20
1.89561
 11
0.285507
 21
1.72266
  0
LINE
  8
0
 10
0.285507
 20
1.72266
 11
0.371078
 21
1.55473
  0
LINE
  8
0
 10
0.371078
 20
1.55473
 11
0.46701
 21
1.39252
  0
LINE
  8
0
 10
0.46701
 20
1.39252
 11
0.572937
 21
1.23663
  0
LINE
  8
0
 10
0.572937
 20
1.23663
 11
0.688446
 21
1.08772
  0
LINE
  8
0
 10
0.688446
 20
1.08772
 11
0.81308
 21
0.94635
  0
LINE
  8
0
 10
0.81308
 20
0.94635
 11
0.94635
 21
0.81308
  0
LINE
  8
0
 10
0.94635
 20
0.81308
 11
1.08772
 21
0.688446
  0
LINE
  8
0
 10
1.08772
 20
0.688446
 11
1.23663
 21
0.572937
  0
LINE
  8
0
 10
1.23663
 20
0.572937
 11
1.39252
 21
0.46701
  0
LINE
  8
0
 10
1.39252
 20
0.46701
 11
1.55473
 21
0.371078
  0
LINE
  8
0
 10
1.55473
 20
0.371078
 11
1.72266
 21
0.285507
  0
LINE
  8
0
 10
1.72266
 20
0.285507
 11
1.89561
 21
0.210663
  0
LINE
  8
0
 10
1.89561
 20
0.210663
 11
2.07294
 21
0.14682
  0
LINE
  8
0
 10
2.07294
 20
0.14682
 11
2.25392
 21
0.0942383
  0
LINE
  8
0
 10
2.25392
 20
0.0942383
 11
2.43785
 21
0.0531311
  0
LINE
  8
0
 10
2.43785
 20
0.0531311
 11
2.62399
 21
0.0236511
  0
LINE
  8
0
 10
2.62399
 20
0.0236511
 11
2.81161
 21
0.00590515
  0
LINE
  8
0
 10
2.81161
 20
0.00590515
 11
2.99998
 21
0
  0
LINE
  8
0
 10
2.99998
 20
0
 11
62
 21
0
  0
LINE
  8
0
 10
62
 20
0
 11
62.1884
 21
0.00590515
  0
LINE
  8
0
 10
3.41365
 20
51.1277
 11
3.32765
 21
51.1358
  0
LINE
  8
0
 10
3.32765
 20
51.1358
 11
3.24234
 21
51.1494
  0
LINE
  8
0
 10
3.24234
 20
51.1494
 11
3.15805
 21
51.1682
  0
LINE
  8
0
 10
3.15805
 20
51.1682
 11
3.07509
 21
51.1923
  0
LINE
  8
0
 10
3.07509
 20
51.1923
 11
2.99382
 21
51.2215
  0
LINE
  8
0
 10
2.99382
 20
51.2215
 11
2.91455
 21
51.2559
  0
LINE
  8
0
 10
2.91455
 20
51.2559
 11
2.83759
 21
51.2951
  0
LINE
  8
0
 10
2.83759
 20
51.2951
 11
2.76323
 21
51.339
  0
LINE
  8
0
 10
2.76323
 20
51.339
 11
2.69179
 21
51.3876
  0
LINE
  8
0
 10
2.69179
 20
51.3876
 11
2.62354
 21
51.4405
  0
LINE
  8
0
 10
2.62354
 20
51.4405
 11
2.55875
 21
51.4977
  0
LINE
  8
0
 10
2.55875
 20
51.4977
 11
2.49767
 21
51.5587
  0
LINE
  8
0
 10
2.49767
 20
51.5587
 11
2.44054
 21
51.6235
  0
LINE
  8
0
 10
2.44054
 20
51.6235
 11
2.38759
 21
51.6918
  0
LINE
  8
0
 10
2.38759
 20
51.6918
 11
2.33904
 21
51.7632
  0
LINE
  8
0
 10
2.33904
 20
51.7632
 11
2.29507
 21
51.8376
  0
LINE
  8
0
 10
2.29507
 20
51.8376
 11
2.25586
 21
51.9146
  0
LINE
  8
0
 10
2.25586
 20
51.9146
 11
2.22154
 21
51.9938
  0
LINE
  8
0
 10
2.22154
 20
51.9938
 11
2.19229
 21
52.0751
  0
LINE
  8
0
 10
2.19229
 20
52.0751
 11
2.1682
 21
52.1581
  0
LINE
  8
0
 10
2.1682
 20
52.1581
 11
2.14935
 21
52.2423
  0
LINE
  8
0
 10
2.14935
 20
52.2423
 11
2.13583
 21
52.3277
  0
LINE
  8
0
 10
2.13583
 20
52.3277
 11
2.1277
 21
52.4137
  0
LINE
  8
0
 10
2.1277
 20
52.4137
 11
2.125
 21
52.5
  0
LINE
  8
0
 10
2.125
 20
52.5
 11
2.1277
 21
52.5863
  0
LINE
  8
0
 10
2.1277
 20
52.5863
 11
2.13583
 21
52.6723
  0
LINE
  8
0
 10
2.13583
 20
52.6723
 11
2.14935
 21
52.7576
  0
LINE
  8
0
 10
2.14935
 20
52.7576
 11
2.1682
 21
52.8419
  0
LINE
  8
0
 10
2.1682
 20
52.8419
 11
2.19229
 21
52.9249
  0
LINE
  8
0
 10
2.19229
 20
52.9249
 11
2.22154
 21
53.0062
  0
LINE
  8
0
 10
2.22154
 20
53.0062
 11
2.25586
 21
53.0854
  0
LINE
  8
0
 10
2.25586
 20
53.0854
 11
2.29507
 21
53.1624
  0
LINE
  8
0
 10
2.29507
 20
53.1624
 11
2.33904
 21
53.2368
  0
LINE
  8
0
 10
2.33904
 20
53.2368
 11
2.38759
 21
53.3082
  0
LINE
  8
0
 10
2.38759
 20
53.3082
 11
2.44054
 21
53.3764
  0
LINE
  8
0
 10
2.44054
 20
53.3764
 11
2.49767
 21
53.4412
  0
LINE
  8
0
 10
2.49767
 20
53.4412
 11
2.55875
 21
53.5023
  0
LINE
  8
0
 10
2.55875
 20
53.5023
 11
2.62354
 21
53.5594
  0
LINE
  8
0
 10
2.62354
 20
53.5594
 11
2.69179
 21
53.6124
  0
LINE
  8
0
 10
2.69179
 20
53.6124
 11
2.76323
 21
53.6609
  0
LINE
  8
0
 10
2.76323
 20
53.6609
 11
2.83759
 21
53.7049
  0
LINE
  8
0
 10
2.83759
 20
53.7049
 11
2.91455
 21
53.7441
  0
LINE
  8
0
 10
2.91455
 20
53.7441
 11
2.99382
 21
53.7784
  0
LINE
  8
0
 10
2.99382
 20
53.7784
 11
3.07509
 21
53.8077
  0
LINE
  8
0
 10
3.07509
 20
53.8077
 11
3.15805
 21
53.8318
  0
LINE
  8
0
 10
3.15805
 20
53.8318
 11
3.24234
 21
53.8506
  0
LINE
  8
0
 10
3.24234
 20
53.8506
 11
3.32765
 21
53.8642
  0
LINE
  8
0
 10
3.32765
 20
53.8642
 11
3.41365
 21
53.8723
  0
LINE
  8
0
 10
3.41365
 20
53.8723
 11
3.5
 21
53.875
  0
LINE
  8
0
 10
3.5
 20
53.875
 11
3.58633
 21
53.8723
  0
LINE
  8
0
 10
3.58633
 20
53.8723
 11
3.67233
 21
53.8642
  0
LINE
  8
0
 10
3.67233
 20
53.8642
 11
3.75764
 21
53.8506
  0
LINE
  8
0
 10
3.75764
 20
53.8506
 11
3.84193
 21
53.8318
  0
LINE
  8
0
 10
3.84193
 20
53.8318
 11
3.9249
 21
53.8077
  0
LINE
  8
0
 10
3.9249
 20
53.8077
 11
4.00616
 21
53.7784
  0
LINE
  8
0
 10
4.00616
 20
53.7784
 11
4.08543
 21
53.7441
  0
LINE
  8
0
 10
4.08543
 20
53.7441
 11
4.1624
 21
53.7049
  0
LINE
  8
0
 10
4.1624
 20
53.7049
 11
4.23676
 21
53.6609
  0
LINE
  8
0
 10
4.23676
 20
53.6609
 11
4.3082
 21
53.6124
  0
LINE
  8
0
 10
4.3082
 20
53.6124
 11
4.37645
 21
53.5594
  0
LINE
  8
0
 10
4.37645
 20
53.5594
 11
4.44124
 21
53.5023
  0
LINE
  8
0
 10
4.44124
 20
53.5023
 11
4.50232
 21
53.4412
  0
LINE
  8
0
 10
4.50232
 20
53.4412
 11
4.55945
 21
53.3764
  0
LINE
  8
0
 10
4.55945
 20
53.3764
 11
4.6124
 21
53.3082
  0
LINE
  8
0
 10
4.6124
 20
53.3082
 11
4.66095
 21
53.2368
  0
LINE
  8
0
 10
4.66095
 20
53.2368
 11
4.70491
 21
53.1624
  0
LINE
  8
0
 10
4.70491
 20
53.1624
 11
4.74413
 21
53.0854
  0
LINE
  8
0
 10
4.74413
 20
53.0854
 11
4.77844
 21
53.0062
  0
LINE
  8
0
 10
4.77844
 20
53.0062
 11
4.80769
 21
52.9249
  0
LINE
  8
0
 10
4.80769
 20
52.9249
 11
4.83179
 21
52.8419
  0
LINE
  8
0
 10
4.83179
 20
52.8419
 11
4.85063
 21
52.7576
  0
LINE
  8
0
 10
4.85063
 20
52.7576
 11
4.86415
 21
52.6723
  0
LINE
  8
0
 10
4.86415
 20
52.6723
 11
4.87228
 21
52.5863
  0
LINE
  8
0
 10
4.87228
 20
52.5863
 11
4.875
 21
52.5
  0
LINE
  8
0
 10
4.875
 20
52.5
 11
4.87228
 21
52.4137
  0
LINE
  8
0
 10
4.87228
 20
52.4137
 11
4.86415
 21
52.3277
  0
LINE
  8
0
 10
4.86415
 20
52.3277
 11
4.85063
 21
52.2423
  0
LINE
  8
0
 10
4.85063
 20
52.2423
 11
4.83179
 21
52.1581
  0
LINE
  8
0
 10
4.83179
 20
52.1581
 11
4.80769
 21
52.0751
  0
LINE
  8
0
 10
4.80769
 20
52.0751
 11
4.77844
 21
51.9938
  0
LINE
  8
0
 10
4.77844
 20
51.9938
 11
4.74413
 21
51.9146
  0
LINE
  8
0
 10
4.74413
 20
51.9146
 11
4.70491
 21
51.8376
  0
LINE
  8
0
 10
4.70491
 20
51.8376
 11
4.66095
 21
51.7632
  0
LINE
  8
0
 10
4.66095
 20
51.7632
 11
4.6124
 21
51.6918
  0
LINE
  8
0
 10
4.6124
 20
51.6918
 11
4.55945
 21
51.6235
  0
LINE
  8
0
 10
4.55945
 20
51.6235
 11
4.50232
 21
51.5587
  0
LINE
  8
0
 10
4.50232
 20
51.5587
 11
4.44124
 21
51.4977
  0
LINE
  8
0
 10
4.44124
 20
51.4977
 11
4.37645
 21
51.4405
  0
LINE
  8
0
 10
4.37645
 20
51.4405
 11
4.3082
 21
51.3876
  0
LINE
  8
0
 10
4.3082
 20
51.3876
 11
4.23676
 21
51.339
  0
LINE
  8
0
 10
4.23676
 20
51.339
 11
4.1624
 21
51.2951
  0
LINE
  8
0
 10
4.1624
 20
51.2951
 11
4.08543
 21
51.2559
  0
LINE
  8
0
 10
4.08543
 20
51.2559
 11
4.00616
 21
51.2215
  0
LINE
  8
0
 10
4.00616
 20
51.2215
 11
3.9249
 21
51.1923
  0
LINE
  8
0
 10
3.9249
 20
51.1923
 11
3.84193
 21
51.1682
  0
LINE
  8
0
 10
3.84193
 20
51.1682
 11
3.75764
 21
51.1494
  0
LINE
  8
0
 10
3.75764
 20
51.1494
 11
3.67233
 21
51.1358
  0
LINE
  8
0
 10
3.67233
 20
51.1358
 11
3.58633
 21
51.1277
  0
LINE
  8
0
 10
3.58633
 20
51.1277
 11
3.49998
 21
51.125
  0
LINE
  8
0
 10
3.49998
 20
51.125
 11
3.41365
 21
51.1277
  0
LINE
  8
0
 10
61.4137
 20
51.1277
 11
61.3277
 21
51.1358
  0
LINE
  8
0
 10
61.3277
 20
51.1358
 11
61.2423
 21
51.1494
  0
LINE
  8
0
 10
61.2423
 20
51.1494
 11
61.1581
 21
51.1682
  0
LINE
  8
0
 10
61.1581
 20
51.1682
 11
61.0751
 21
51.1923
  0
LINE
  8
0
 10
61.0751
 20
51.1923
 11
60.9938
 21
51.2215
  0
LINE
  8
0
 10
60.9938
 20
51.2215
 11
60.9146
 21
51.2559
  0
LINE
  8
0
 10
60.9146
 20
51.2559
 11
60.8376
 21
51.2951
  0
LINE
  8
0
 10
60.8376
 20
51.2951
 11
60.7632
 21
51.339
  0
LINE
  8
0
 10
60.7632
 20
51.339
 11
60.6918
 21
51.3876
  0
LINE
  8
0
 10
60.6918
 20
51.3876
 11
60.6235
 21
51.4405
  0
LINE
  8
0
 10
60.6235
 20
51.4405
 11
60.5587
 21
51.4977
  0
LINE
  8
0
 10
60.5587
 20
51.4977
 11
60.4977
 21
51.5587
  0
LINE
  8
0
 10
60.4977
 20
51.5587
 11
60.4405
 21
51.6235
  0
LINE
  8
0
 10
60.4405
 20
51.6235
 11
60.3876
 21
51.6918
  0
LINE
  8
0
 10
60.3876
 20
51.6918
 11
60.339
 21
51.7632
  0
LINE
  8
0
 10
60.339
 20
51.7632
 11
60.2951
 21
51.8376
  0
LINE
  8
0
 10
60.2951
 20
51.8376
 11
60.2559
 21
51.9146
  0
LINE
  8
0
 10
60.2559
 20
51.9146
 11
60.2215
 21
51.9938
  0
LINE
  8
0
 10
60.2215
 20
51.9938
 11
60.1923
 21
52.0751
  0
LINE
  8
0
 10
60.1923
 20
52.0751
 11
60.1682
 21
52.1581
  0
LINE
  8
0
 10
60.1682
 20
52.1581
 11
60.1494
 21
52.2423
  0
LINE
  8
0
 10
60.1494
 20
52.2423
 11
60.1358
 21
52.3277
  0
LINE
  8
0
 10
60.1358
 20
52.3277
 11
60.1277
 21
52.4137
  0
LINE
  8
0
 10
60.1277
 20
52.4137
 11
60.125
 21
52.5
  0
LINE
  8
0
 10
60.125
 20
52.5
 11
60.1277
 21
52.5863
  0
LINE
  8
0
 10
60.1277
 20
52.5863
 11
60.1358
 21
52.6723
  0
LINE
  8
0
 10
60.1358
 20
52.6723
 11
60.1494
 21
52.7576
  0
LINE
  8
0
 10
60.1494
 20
52.7576
 11
60.1682
 21
52.8419
  0
LINE
  8
0
 10
60.1682
 20
52.8419
 11
60.1923
 21
52.9249
  0
LINE
  8
0
 10
60.1923
 20
52.9249
 11
60.2215
 21
53.0062
  0
LINE
  8
0
 10
60.2215
 20
53.0062
 11
60.2559
 21
53.0854
  0
LINE
  8
0
 10
60.2559
 20
53.0854
 11
60.2951
 21
53.1624
  0
LINE
  8
0
 10
60.2951
 20
53.1624
 11
60.339
 21
53.2368
  0
LINE
  8
0
 10
60.339
 20
53.2368
 11
60.3876
 21
53.3082
  0
LINE
  8
0
 10
60.3876
 20
53.3082
 11
60.4405
 21
53.3764
  0
LINE
  8
0
 10
60.4405
 20
53.3764
 11
60.4977
 21
53.4412
  0
LINE
  8
0
 10
60.4977
 20
53.4412
 11
60.5587
 21
53.5023
  0
LINE
  8
0
 10
60.5587
 20
53.5023
 11
60.6235
 21
53.5594
  0
LINE
  8
0
 10
60.6235
 20
53.5594
 11
60.6918
 21
53.6124
  0
LINE
  8
0
 10
60.6918
 20
53.6124
 11
60.7632
 21
53.6609
  0
LINE
  8
0
 10
60.7632
 20
53.6609
 11
60.8376
 21
53.7049
  0
LINE
  8
0
 10
60.8376
 20
53.7049
 11
60.9146
 21
53.7441
  0
LINE
  8
0
 10
60.9146
 20
53.7441
 11
60.9938
 21
53.7784
  0
LINE
  8
0
 10
60.9938
 20
53.7784
 11
61.0751
 21
53.8077
  0
LINE
  8
0
 10
61.0751
 20
53.8077
 11
61.1581
 21
53.8318
  0
LINE
  8
0
 10
61.1581
 20
53.8318
 11
61.2423
 21
53.8506
  0
LINE
  8
0
 10
61.2423
 20
53.8506
 11
61.3277
 21
53.8642
  0
LINE
  8
0
 10
61.3277
 20
53.8642
 11
61.4137
 21
53.8723
  0
LINE
  8
0
 10
61.4137
 20
53.8723
 11
61.5
 21
53.875
  0
LINE
  8
0
 10
61.5
 20
53.875
 11
61.5863
 21
53.8723
  0
LINE
  8
0
 10
61.5863
 20
53.8723
 11
61.6723
 21
53.8642
  0
LINE
  8
0
 10
61.6723
 20
53.8642
 11
61.7576
 21
53.8506
  0
LINE
  8
0
 10
61.7576
 20
53.8506
 11
61.8419
 21
53.8318
  0
LINE
  8
0
 10
61.8419
 20
53.8318
 11
61.9249
 21
53.8077
  0
LINE
  8
0
 10
61.9249
 20
53.8077
 11
62.0062
 21
53.7784
  0
LINE
  8
0
 10
62.0062
 20
53.7784
 11
62.0854
 21
53.7441
  0
LINE
  8
0
 10
62.0854
 20
53.7441
 11
62.1624
 21
53.7049
  0
LINE
  8
0
 10
62.1624
 20
53.7049
 11
62.2368
 21
53.6609
  0
LINE
  8
0
 10
62.2368
 20
53.6609
 11
62.3082
 21
53.6124
  0
LINE
  8
0
 10
62.3082
 20
53.6124
 11
62.3764
 21
53.5594
  0
LINE
  8
0
 10
62.3764
 20
53.5594
 11
62.4412
 21
53.5023
  0
LINE
  8
0
 10
62.4412
 20
53.5023
 11
62.5023
 21
53.4412
  0
LINE
  8
0
 10
62.5023
 20
53.4412
 11
62.5594
 21
53.3764
  0
LINE
  8
0
 10
62.5594
 20
53.3764
 11
62.6124
 21
53.3082
  0
LINE
  8
0
 10
62.6124
 20
53.3082
 11
62.6609
 21
53.2368
  0
LINE
  8
0
 10
62.6609
 20
53.2368
 11
62.7049
 21
53.1624
  0
LINE
  8
0
 10
62.7049
 20
53.1624
 11
62.7441
 21
53.0854
  0
LINE
  8
0
 10
62.7441
 20
53.0854
 11
62.7784
 21
53.0062
  0
LINE
  8
0
 10
62.7784
 20
53.0062
 11
62.8077
 21
52.9249
  0
LINE
  8
0
 10
62.8077
 20
52.9249
 11
62.8318
 21
52.8419
  0
LINE
  8
0
 10
62.8318
 20
52.8419
 11
62.8506
 21
52.7576
  0
LINE
  8
0
 10
62.8506
 20
52.7576
 11
62.8642
 21
52.6723
  0
LINE
  8
0
 10
62.8642
 20
52.6723
 11
62.8723
 21
52.5863
  0
LINE
  8
0
 10
62.8723
 20
52.5863
 11
62.875
 21
52.5
  0
LINE
  8
0
 10
62.875
 20
52.5
 11
62.8723
 21
52.4137
  0
LINE
  8
0
 10
62.8723
 20
52.4137
 11
62.8642
 21
52.3277
  0
LINE
  8
0
 10
62.8642
 20
52.3277
 11
62.8506
 21
52.2423
  0
LINE
  8
0
 10
62.8506
 20
52.2423
 11
62.8318
 21
52.1581
  0
LINE
  8
0
 10
62.8318
 20
52.1581
 11
62.8077
 21
52.0751
  0
LINE
  8
0
 10
62.8077
 20
52.0751
 11
62.7784
 21
51.9938
  0
LINE
  8
0
 10
62.7784
 20
51.9938
 11
62.7441
 21
51.9146
  0
LINE
  8
0
 10
62.7441
 20
51.9146
 11
62.7049
 21
51.8376
  0
LINE
  8
0
 10
62.7049
 20
51.8376
 11
62.6609
 21
51.7632
  0
LINE
  8
0
 10
62.6609
 20
51.7632
 11
62.6124
 21
51.6918
  0
LINE
  8
0
 10
62.6124
 20
51.6918
 11
62.5594
 21
51.6235
  0
LINE
  8
0
 10
62.5594
 20
51.6235
 11
62.5023
 21
51.5587
  0
LINE
  8
0
 10
62.5023
 20
51.5587
 11
62.4412
 21
51.4977
  0
LINE
  8
0
 10
62.4412
 20
51.4977
 11
62.3764
 21
51.4405
  0
LINE
  8
0
 10
62.3764
 20
51.4405
 11
62.3082
 21
51.3876
  0
LINE
  8
0
 10
62.3082
 20
51.3876
 11
62.2368
 21
51.339
  0
LINE
  8
0
 10
62.2368
 20
51.339
 11
62.1624
 21
51.2951
  0
LINE
  8
0
 10
62.1624
 20
51.2951
 11
62.0854
 21
51.2559
  0
LINE
  8
0
 10
62.0854
 20
51.2559
 11
62.0062
 21
51.2215
  0
LINE
  8
0
 10
62.0062
 20
51.2215
 11
61.9249
 21
51.1923
  0
LINE
  8
0
 10
61.9249
 20
51.1923
 11
61.8419
 21
51.1682
  0
LINE
  8
0
 10
61.8419
 20
51.1682
 11
61.7576
 21
51.1494
  0
LINE
  8
0
 10
61.7576
 20
51.1494
 11
61.6723
 21
51.1358
  0
LINE
  8
0
 10
61.6723
 20
51.1358
 11
61.5863
 21
51.1277
  0
LINE
  8
0
 10
61.5863
 20
51.1277
 11
61.5
 21
51.125
  0
LINE
  8
0
 10
61.5
 20
51.125
 11
61.4137
 21
51.1277
  0
LINE
  8
0
 10
44.9372
 20
3.00197
 11
44.8747
 21
3.00787
  0
LINE
  8
0
 10
44.8747
 20
3.00787
 11
44.8126
 21
3.0177
  0
LINE
  8
0
 10
44.8126
 20
3.0177
 11
44.7513
 21
3.0314
  0
LINE
  8
0
 10
44.7513
 20
3.0314
 11
44.691
 21
3.04893
  0
LINE
  8
0
 10
44.691
 20
3.04893
 11
44.6319
 21
3.07022
  0
LINE
  8
0
 10
44.6319
 20
3.07022
 11
44.5742
 21
3.09517
  0
LINE
  8
0
 10
44.5742
 20
3.09517
 11
44.5182
 21
3.12369
  0
LINE
  8
0
 10
44.5182
 20
3.12369
 11
44.4642
 21
3.15567
  0
LINE
  8
0
 10
44.4642
 20
3.15567
 11
44.4122
 21
3.19098
  0
LINE
  8
0
 10
44.4122
 20
3.19098
 11
44.3626
 21
3.22948
  0
LINE
  8
0
 10
44.3626
 20
3.22948
 11
44.3154
 21
3.27103
  0
LINE
  8
0
 10
44.3154
 20
3.27103
 11
44.271
 21
3.31544
  0
LINE
  8
0
 10
44.271
 20
3.31544
 11
44.2295
 21
3.36256
  0
LINE
  8
0
 10
44.2295
 20
3.36256
 11
44.191
 21
3.4122
  0
LINE
  8
0
 10
44.191
 20
3.4122
 11
44.1557
 21
3.46417
  0
LINE
  8
0
 10
44.1557
 20
3.46417
 11
44.1237
 21
3.51823
  0
LINE
  8
0
 10
44.1237
 20
3.51823
 11
44.0952
 21
3.57422
  0
LINE
  8
0
 10
44.0952
 20
3.57422
 11
44.0702
 21
3.63187
  0
LINE
  8
0
 10
44.0702
 20
3.63187
 11
44.0489
 21
3.69098
  0
LINE
  8
0
 10
44.0489
 20
3.69098
 11
44.0314
 21
3.7513
  0
LINE
  8
0
 10
44.0314
 20
3.7513
 11
44.0177
 21
3.81261
  0
LINE
  8
0
 10
44.0177
 20
3.81261
 11
44.0079
 21
3.87466
  0
LINE
  8
0
 10
44.0079
 20
3.87466
 11
44.002
 21
3.93719
  0
LINE
  8
0
 10
44.002
 20
3.93719
 11
44
 21
4
  0
LINE
  8
0
 10
44
 20
4
 11
44
 21
19
  0
LINE
  8
0
 10
44
 20
19
 11
44.002
 21
19.0628
  0
LINE
  8
0
 10
44.002
 20
19.0628
 11
44.0079
 21
19.1253
  0
LINE
  8
0
 10
44.0079
 20
19.1253
 11
44.0177
 21
19.1874
  0
LINE
  8
0
 10
44.0177
 20
19.1874
 11
44.0314
 21
19.2487
  0
LINE
  8
0
 10
44.0314
 20
19.2487
 11
44.0489
 21
19.309
  0
LINE
  8
0
 10
44.0489
 20
19.309
 11
44.0702
 21
19.3681
  0
LINE
  8
0
 10
44.0702
 20
19.3681
 11
44.0952
 21
19.4258
  0
LINE
  8
0
 10
44.0952
 20
19.4258
 11
44.1237
 21
19.4818
  0
LINE
  8
0
 10
44.1237
 20
19.4818
 11
44.1557
 21
19.5358
  0
LINE
  8
0
 10
44.1557
 20
19.5358
 11
44.191
 21
19.5878
  0
LINE
  8
0
 10
44.191
 20
19.5878
 11
44.2295
 21
19.6374
  0
LINE
  8
0
 10
44.2295
 20
19.6374
 11
44.271
 21
19.6845
  0
LINE
  8
0
 10
44.271
 20
19.6845
 11
44.3154
 21
19.729
  0
LINE
  8
0
 10
44.3154
 20
19.729
 11
44.3626
 21
19.7705
  0
LINE
  8
0
 10
44.3626
 20
19.7705
 11
44.4122
 21
19.809
  0
LINE
  8
0
 10
44.4122
 20
19.809
 11
44.4642
 21
19.8443
  0
LINE
  8
0
 10
44.4642
 20
19.8443
 11
44.5182
 21
19.8763
  0
LINE
  8
0
 10
44.5182
 20
19.8763
 11
44.5742
 21
19.9048
  0
LINE
  8
0
 10
44.5742
 20
19.9048
 11
44.6319
 21
19.9298
  0
LINE
  8
0
 10
44.6319
 20
19.9298
 11
44.691
 21
19.951
  0
LINE
  8
0
 10
44.691
 20
19.951
 11
44.7513
 21
19.9686
  0
LINE
  8
0
 10
44.7513
 20
19.9686
 11
44.8126
 21
19.9823
  0
LINE
  8
0
 10
44.8126
 20
19.9823
 11
44.8747
 21
19.9921
  0
LINE
  8
0
 10
44.8747
 20
19.9921
 11
44.9372
 21
19.998
  0
LINE
  8
0
 10
44.9372
 20
19.998
 11
45
 21
20
  0
LINE
  8
0
 10
45
 20
20
 11
45.0628
 21
19.998
  0
LINE
  8
0
 10
45.0628
 20
19.998
 11
45.1253
 21
19.9921
  0
LINE
  8
0
 10
45.1253
 20
19.9921
 11
45.1874
 21
19.9823
  0
LINE
  8
0
 10
45.1874
 20
19.9823
 11
45.2487
 21
19.9686
  0
LINE
  8
0
 10
45.2487
 20
19.9686
 11
45.309
 21
19.951
  0
LINE
  8
0
 10
45.309
 20
19.951
 11
45.3681
 21
19.9298
  0
LINE
  8
0
 10
45.3681
 20
19.9298
 11
45.4258
 21
19.9048
  0
LINE
  8
0
 10
45.4258
 20
19.9048
 11
45.4818
 21
19.8763
  0
LINE
  8
0
 10
45.4818
 20
19.8763
 11
45.5358
 21
19.8443
  0
LINE
  8
0
 10
45.5358
 20
19.8443
 11
45.5878
 21
19.809
  0
LINE
  8
0
 10
45.5878
 20
19.809
 11
45.6374
 21
19.7705
  0
LINE
  8
0
 10
45.6374
 20
19.7705
 11
45.6845
 21
19.729
  0
LINE
  8
0
 10
45.6845
 20
19.729
 11
45.729
 21
19.6845
  0
LINE
  8
0
 10
45.729
 20
19.6845
 11
45.7705
 21
19.6374
  0
LINE
  8
0
 10
45.7705
 20
19.6374
 11
45.809
 21
19.5878
  0
LINE
  8
0
 10
45.809
 20
19.5878
 11
45.8443
 21
19.5358
  0
LINE
  8
0
 10
45.8443
 20
19.5358
 11
45.8763
 21
19.4818
  0
LINE
  8
0
 10
45.8763
 20
19.4818
 11
45.9048
 21
19.4258
  0
LINE
  8
0
 10
45.9048
 20
19.4258
 11
45.9298
 21
19.3681
  0
LINE
  8
0
 10
45.9298
 20
19.3681
 11
45.951
 21
19.309
  0
LINE
  8
0
 10
45.951
 20
19.309
 11
45.9686
 21
19.2487
  0
LINE
  8
0
 10
45.9686
 20
19.2487
 11
45.9823
 21
19.1874
  0
LINE
  8
0
 10
45.9823
 20
19.1874
 11
45.9921
 21
19.1253
  0
LINE
  8
0
 10
45.9921
 20
19.1253
 11
45.998
 21
19.0628
  0
LINE
  8
0
 10
45.998
 20
19.0628
 11
46
 21
19
  0
LINE
  8
0
 10
46
 20
19
 11
46
 21
4
  0
LINE
  8
0
 10
46
 20
4
 11
45.998
 21
3.93719
  0
LINE
  8
0
 10
45.998
 20
3.93719
 11
45.9921
 21
3.87466
  0
LINE
  8
0
 10
45.9921
 20
3.87466
 11
45.9823
 21
3.81261
  0
LINE
  8
0
 10
45.9823
 20
3.81261
 11
45.9686
 21
3.7513
  0
LINE
  8
0
 10
45.9686
 20
3.7513
 11
45.951
 21
3.69098
  0
LINE
  8
0
 10
45.951
 20
3.69098
 11
45.9298
 21
3.63187
  0
LINE
  8
0
 10
45.9298
 20
3.63187
 11
45.9048
 21
3.57422
  0
LINE
  8
0
 10
45.9048
 20
3.57422
 11
45.8763
 21
3.51823
  0
LINE
  8
0
 10
45.8763
 20
3.51823
 11
45.8443
 21
3.46417
  0
LINE
  8
0
 10
45.8443
 20
3.46417
 11
45.809
 21
3.4122
  0
LINE
  8
0
 10
45.809
 20
3.4122
 11
45.7705
 21
3.36256
  0
LINE
  8
0
 10
45.7705
 20
3.36256
 11
45.729
 21
3.31544
  0
LINE
  8
0
 10
45.729
 20
3.31544
 11
45.6845
 21
3.27103
  0
LINE
  8
0
 10
45.6845
 20
3.27103
 11
45.6374
 21
3.22948
  0
LINE
  8
0
 10
45.6374
 20
3.22948
 11
45.5878
 21
3.19098
  0
LINE
  8
0
 10
45.5878
 20
3.19098
 11
45.5358
 21
3.15567
  0
LINE
  8
0
 10
45.5358
 20
3.15567
 11
45.4818
 21
3.12369
  0
LINE
  8
0
 10
45.4818
 20
3.12369
 11
45.4258
 21
3.09517
  0
LINE
  8
0
 10
45.4258
 20
3.09517
 11
45.3681
 21
3.07022
  0
LINE
  8
0
 10
45.3681
 20
3.07022
 11
45.309
 21
3.04893
  0
LINE
  8
0
 10
45.309
 20
3.04893
 11
45.2487
 21
3.0314
  0
LINE
  8
0
 10
45.2487
 20
3.0314
 11
45.1874
 21
3.0177
  0
LINE
  8
0
 10
45.1874
 20
3.0177
 11
45.1253
 21
3.00787
  0
LINE
  8
0
 10
45.1253
 20
3.00787
 11
45.0628
 21
3.00197
  0
LINE
  8
0
 10
45.0628
 20
3.00197
 11
45
 21
3
  0
LINE
  8
0
 10
45
 20
3
 11
44.9372
 21
3.00197
  0
LINE
  8
0
 10
3.41365
 20
2.1277
 11
3.32765
 21
2.13583
  0
LINE
  8
0
 10
3.32765
 20
2.13583
 11
3.24234
 21
2.14935
  0
LINE
  8
0
 10
3.24234
 20
2.14935
 11
3.15805
 21
2.1682
  0
LINE
  8
0
 10
3.15805
 20
2.1682
 11
3.07509
 21
2.19229
  0
LINE
  8
0
 10
3.07509
 20
2.19229
 11
2.99382
 21
2.22154
  0
LINE
  8
0
 10
2.99382
 20
2.22154
 11
2.91455
 21
2.25586
  0
LINE
  8
0
 10
2.91455
 20
2.25586
 11
2.83759
 21
2.29507
  0
LINE
  8
0
 10
2.83759
 20
2.29507
 11
2.76323
 21
2.33904
  0
LINE
  8
0
 10
2.76323
 20
2.33904
 11
2.69179
 21
2.38759
  0
LINE
  8
0
 10
2.69179
 20
2.38759
 11
2.62354
 21
2.44054
  0
LINE
  8
0
 10
2.62354
 20
2.44054
 11
2.55875
 21
2.49767
  0
LINE
  8
0
 10
2.55875
 20
2.49767
 11
2.49767
 21
2.55875
  0
LINE
  8
0
 10
2.49767
 20
2.55875
 11
2.44054
 21
2.62354
  0
LINE
  8
0
 10
2.44054
 20
2.62354
 11
2.38759
 21
2.69179
  0
LINE
  8
0
 10
2.38759
 20
2.69179
 11
2.33904
 21
2.76323
  0
LINE
  8
0
 10
2.33904
 20
2.76323
 11
2.29507
 21
2.83759
  0
LINE
  8
0
 10
2.29507
 20
2.83759
 11
2.25586
 21
2.91455
  0
LINE
  8
0
 10
2.25586
 20
2.91455
 11
2.22154
 21
2.99382
  0
LINE
  8
0
 10
2.22154
 20
2.99382
 11
2.19229
 21
3.07509
  0
LINE
  8
0
 10
2.19229
 20
3.07509
 11
2.1682
 21
3.15805
  0
LINE
  8
0
 10
2.1682
 20
3.15805
 11
2.14935
 21
3.24234
  0
LINE
  8
0
 10
2.14935
 20
3.24234
 11
2.13583
 21
3.32765
  0
LINE
  8
0
 10
2.13583
 20
3.32765
 11
2.1277
 21
3.41365
  0
LINE
  8
0
 10
2.1277
 20
3.41365
 11
2.125
 21
3.5
  0
LINE
  8
0
 10
2.125
 20
3.5
 11
2.1277
 21
3.58633
  0
LINE
  8
0
 10
2.1277
 20
3.58633
 11
2.13583
 21
3.67233
  0
LINE
  8
0
 10
2.13583
 20
3.67233
 11
2.14935
 21
3.75764
  0
LINE
  8
0
 10
2.14935
 20
3.75764
 11
2.1682
 21
3.84193
  0
LINE
  8
0
 10
2.1682
 20
3.84193
 11
2.19229
 21
3.9249
  0
LINE
  8
0
 10
2.19229
 20
3.9249
 11
2.22154
 21
4.00616
  0
LINE
  8
0
 10
2.22154
 20
4.00616
 11
2.25586
 21
4.08543
  0
LINE
  8
0
 10
2.25586
 20
4.08543
 11
2.29507
 21
4.1624
  0
LINE
  8
0
 10
2.29507
 20
4.1624
 11
2.33904
 21
4.23676
  0
LINE
  8
0
 10
2.33904
 20
4.23676
 11
2.38759
 21
4.3082
  0
LINE
  8
0
 10
2.38759
 20
4.3082
 11
2.44054
 21
4.37645
  0
LINE
  8
0
 10
2.44054
 20
4.37645
 11
2.49767
 21
4.44124
  0
LINE
  8
0
 10
2.49767
 20
4.44124
 11
2.55875
 21
4.50232
  0
LINE
  8
0
 10
2.55875
 20
4.50232
 11
2.62354
 21
4.55945
  0
LINE
  8
0
 10
2.62354
 20
4.55945
 11
2.69179
 21
4.6124
  0
LINE
  8
0
 10
2.69179
 20
4.6124
 11
2.76323
 21
4.66095
  0
LINE
  8
0
 10
2.76323
 20
4.66095
 11
2.83759
 21
4.70491
  0
LINE
  8
0
 10
2.83759
 20
4.70491
 11
2.91455
 21
4.74413
  0
LINE
  8
0
 10
2.91455
 20
4.74413
 11
2.99382
 21
4.77844
  0
LINE
  8
0
 10
2.99382
 20
4.77844
 11
3.07509
 21
4.80769
  0
LINE
  8
0
 10
3.07509
 20
4.80769
 11
3.15805
 21
4.83179
  0
LINE
  8
0
 10
3.15805
 20
4.83179
 11
3.24234
 21
4.85063
  0
LINE
  8
0
 10
3.24234
 20
4.85063
 11
3.32765
 21
4.86415
  0
LINE
  8
0
 10
3.32765
 20
4.86415
 11
3.41365
 21
4.87228
  0
LINE
  8
0
 10
3.41365
 20
4.87228
 11
3.5
 21
4.875
  0
LINE
  8
0
 10
3.5
 20
4.875
 11
3.58633
 21
4.87228
  0
LINE
  8
0
 10
3.58633
 20
4.87228
 11
3.67233
 21
4.86415
  0
LINE
  8
0
 10
3.67233
 20
4.86415
 11
3.75764
 21
4.85063
  0
LINE
  8
0
 10
3.75764
 20
4.85063
 11
3.84193
 21
4.83179
  0
LINE
  8
0
 10
3.84193
 20
4.83179
 11
3.9249
 21
4.80769
  0
LINE
  8
0
 10
3.9249
 20
4.80769
 11
4.00616
 21
4.77844
  0
LINE
  8
0
 10
4.00616
 20
4.77844
 11
4.08543
 21
4.74413
  0
LINE
  8
0
 10
4.08543
 20
4.74413
 11
4.1624
 21
4.70491
  0
LINE
  8
0
 10
4.1624
 20
4.70491
 11
4.23676
 21
4.66095
  0
LINE
  8
0
 10
4.23676
 20
4.66095
 11
4.3082
 21
4.6124
  0
LINE
  8
0
 10
4.3082
 20
4.6124
 11
4.37645
 21
4.55945
  0
LINE
  8
0
 10
4.37645
 20
4.55945
 11
4.44124
 21
4.50232
  0
LINE
  8
0
 10
4.44124
 20
4.50232
 11
4.50232
 21
4.44124
  0
LINE
  8
0
 10
4.50232
 20
4.44124
 11
4.55945
 21
4.37645
  0
LINE
  8
0
 10
4.55945
 20
4.37645
 11
4.6124
 21
4.3082
  0
LINE
  8
0
 10
4.6124
 20
4.3082
 11
4.66095
 21
4.23676
  0
LINE
  8
0
 10
4.66095
 20
4.23676
 11
4.70491
 21
4.1624
  0
LINE
  8
0
 10
4.70491
 20
4.1624
 11
4.74413
 21
4.08543
  0
LINE
  8
0
 10
4.74413
 20
4.08543
 11
4.77844
 21
4.00616
  0
LINE
  8
0
 10
4.77844
 20
4.00616
 11
4.80769
 21
3.9249
  0
LINE
  8
0
 10
4.80769
 20
3.9249
 11
4.83179
 21
3.84193
  0
LINE
  8
0
 10
4.83179
 20
3.84193
 11
4.85063
 21
3.75764
  0
LINE
  8
0
 10
4.85063
 20
3.75764
 11
4.86415
 21
3.67233
  0
LINE
  8
0
 10
4.86415
 20
3.67233
 11
4.87228
 21
3.58633
  0
LINE
  8
0
 10
4.87228
 20
3.58633
 11
4.875
 21
3.5
  0
LINE
  8
0
 10
4.875
 20
3.5
 11
4.87228
 21
3.41365
  0
LINE
  8
0
 10
4.87228
 20
3.41365
 11
4.86415
 21
3.32765
  0
LINE
  8
0
 10
4.86415
 20
3.32765
 11
4.85063
 21
3.24234
  0
LINE
  8
0
 10
4.85063
 20
3.24234
 11
4.83179
 21
3.15805
  0
LINE
  8
0
 10
4.83179
 20
3.15805
 11
4.80769
 21
3.07509
  0
LINE
  8
0
 10
4.80769
 20
3.07509
 11
4.77844
 21
2.99382
  0
LINE
  8
0
 10
4.77844
 20
2.99382
 11
4.74413
 21
2.91455
  0
LINE
  8
0
 10
4.74413
 20
2.91455
 11
4.70491
 21
2.83759
  0
LINE
  8
0
 10
4.70491
 20
2.83759
 11
4.66095
 21
2.76323
  0
LINE
  8
0
 10
4.66095
 20
2.76323
 11
4.6124
 21
2.69179
  0
LINE
  8
0
 10
4.6124
 20
2.69179
 11
4.55945
 21
2.62354
  0
LINE
  8
0
 10
4.55945
 20
2.62354
 11
4.50232
 21
2.55875
  0
LINE
  8
0
 10
4.50232
 20
2.55875
 11
4.44124
 21
2.49767
  0
LINE
  8
0
 10
4.44124
 20
2.49767
 11
4.37645
 21
2.44054
  0
LINE
  8
0
 10
4.37645
 20
2.44054
 11
4.3082
 21
2.38759
  0
LINE
  8
0
 10
4.3082
 20
2.38759
 11
4.23676
 21
2.33904
  0
LINE
  8
0
 10
4.23676
 20
2.33904
 11
4.1624
 21
2.29507
  0
LINE
  8
0
 10
4.1624
 20
2.29507
 11
4.08543
 21
2.25586
  0
LINE
  8
0
 10
4.08543
 20
2.25586
 11
4.00616
 21
2.22154
  0
LINE
  8
0
 10
4.00616
 20
2.22154
 11
3.9249
 21
2.19229
  0
LINE
  8
0
 10
3.9249
 20
2.19229
 11
3.84193
 21
2.1682
  0
LINE
  8
0
 10
3.84193
 20
2.1682
 11
3.75764
 21
2.14935
  0
LINE
  8
0
 10
3.75764
 20
2.14935
 11
3.67233
 21
2.13583
  0
LINE
  8
0
 10
3.67233
 20
2.13583
 11
3.58633
 21
2.1277
  0
LINE
  8
0
 10
3.58633
 20
2.1277
 11
3.49998
 21
2.125
  0
LINE
  8
0
 10
3.49998
 20
2.125
 11
3.41365
 21
2.1277
  0
LINE
  8
0
 10
61.4137
 20
2.1277
 11
61.3277
 21
2.13583
  0
LINE
  8
0
 10
61.3277
 20
2.13583
 11
61.2423
 21
2.14935
  0
LINE
  8
0
 10
61.2423
 20
2.14935
 11
61.1581
 21
2.1682
  0
LINE
  8
0
 10
61.1581
 20
2.1682
 11
61.0751
 21
2.19229
  0
LINE
  8
0
 10
61.0751
 20
2.19229
 11
60.9938
 21
2.22154
  0
LINE
  8
0
 10
60.9938
 20
2.22154
 11
60.9146
 21
2.25586
  0
LINE
  8
0
 10
60.9146
 20
2.25586
 11
60.8376
 21
2.29507
  0
LINE
  8
0
 10
60.8376
 20
2.29507
 11
60.7632
 21
2.33904
  0
LINE
  8
0
 10
60.7632
 20
2.33904
 11
60.6918
 21
2.38759
  0
LINE
  8
0
 10
60.6918
 20
2.38759
 11
60.6235
 21
2.44054
  0
LINE
  8
0
 10
60.6235
 20
2.44054
 11
60.5587
 21
2.49767
  0
LINE
  8
0
 10
60.5587
 20
2.49767
 11
60.4977
 21
2.55875
  0
LINE
  8
0
 10
60.4977
 20
2.55875
 11
60.4405
 21
2.62354
  0
LINE
  8
0
 10
60.4405
 20
2.62354
 11
60.3876
 21
2.69179
  0
LINE
  8
0
 10
60.3876
 20
2.69179
 11
60.339
 21
2.76323
  0
LINE
  8
0
 10
60.339
 20
2.76323
 11
60.2951
 21
2.83759
  0
LINE
  8
0
 10
60.2951
 20
2.83759
 11
60.2559
 21
2.91455
  0
LINE
  8
0
 10
60.2559
 20
2.91455
 11
60.2215
 21
2.99382
  0
LINE
  8
0
 10
60.2215
 20
2.99382
 11
60.1923
 21
3.07509
  0
LINE
  8
0
 10
60.1923
 20
3.07509
 11
60.1682
 21
3.15805
  0
LINE
  8
0
 10
60.1682
 20
3.15805
 11
60.1494
 21
3.24234
  0
LINE
  8
0
 10
60.1494
 20
3.24234
 11
60.1358
 21
3.32765
  0
LINE
  8
0
 10
60.1358
 20
3.32765
 11
60.1277
 21
3.41365
  0
LINE
  8
0
 10
60.1277
 20
3.41365
 11
60.125
 21
3.5
  0
LINE
  8
0
 10
60.125
 20
3.5
 11
60.1277
 21
3.58633
  0
LINE
  8
0
 10
60.1277
 20
3.58633
 11
60.1358
 21
3.67233
  0
LINE
  8
0
 10
60.1358
 20
3.67233
 11
60.1494
 21
3.75764
  0
LINE
  8
0
 10
60.1494
 20
3.75764
 11
60.1682
 21
3.84193
  0
LINE
  8
0
 10
60.1682
 20
3.84193
 11
60.1923
 21
3.9249
  0
LINE
  8
0
 10
60.1923
 20
3.9249
 11
60.2215
 21
4.00616
  0
LINE
  8
0
 10
60.2215
 20
4.00616
 11
60.2559
 21
4.08543
  0
LINE
  8
0
 10
60.2559
 20
4.08543
 11
60.2951
 21
4.1624
  0
LINE
  8
0
 10
60.2951
 20
4.1624
 11
60.339
 21
4.23676
  0
LINE
  8
0
 10
60.339
 20
4.23676
 11
60.3876
 21
4.3082
  0
LINE
  8
0
 10
60.3876
 20
4.3082
 11
60.4405
 21
4.37645
  0
LINE
  8
0
 10
60.4405
 20
4.37645
 11
60.4977
 21
4.44124
  0
LINE
  8
0
 10
60.4977
 20
4.44124
 11
60.5587
 21
4.50232
  0
LINE
  8
0
 10
60.5587
 20
4.50232
 11
60.6235
 21
4.55945
  0
LINE
  8
0
 10
60.6235
 20
4.55945
 11
60.6918
 21
4.6124
  0
LINE
  8
0
 10
60.6918
 20
4.6124
 11
60.7632
 21
4.66095
  0
LINE
  8
0
 10
60.7632
 20
4.66095
 11
60.8376
 21
4.70491
  0
LINE
  8
0
 10
60.8376
 20
4.70491
 11
60.9146
 21
4.74413
  0
LINE
  8
0
 10
60.9146
 20
4.74413
 11
60.9938
 21
4.77844
  0
LINE
  8
0
 10
60.9938
 20
4.77844
 11
61.0751
 21
4.80769
  0
LINE
  8
0
 10
61.0751
 20
4.80769
 11
61.1581
 21
4.83179
  0
LINE
  8
0
 10
61.1581
 20
4.83179
 11
61.2423
 21
4.85063
  0
LINE
  8
0
 10
61.2423
 20
4.85063
 11
61.3277
 21
4.86415
  0
LINE
  8
0
 10
61.3277
 20
4.86415
 11
61.4137
 21
4.87228
  0
LINE
  8
0
 10
61.4137
 20
4.87228
 11
61.5
 21
4.875
  0
LINE
  8
0
 10
61.5
 20
4.875
 11
61.5863
 21
4.87228
  0
LINE
  8
0
 10
61.5863
 20
4.87228
 11
61.6723
 21
4.86415
  0
LINE
  8
0
 10
61.6723
 20
4.86415
 11
61.7576
 21
4.85063
  0
LINE
  8
0
 10
61.7576
 20
4.85063
 11
61.8419
 21
4.83179
  0
LINE
  8
0
 10
61.8419
 20
4.83179
 11
61.9249
 21
4.80769
  0
LINE
  8
0
 10
61.9249
 20
4.80769
 11
62.0062
 21
4.77844
  0
LINE
  8
0
 10
62.0062
 20
4.77844
 11
62.0854
 21
4.74413
  0
LINE
  8
0
 10
62.0854
 20
4.74413
 11
62.1624
 21
4.70491
  0
LINE
  8
0
 10
62.1624
 20
4.70491
 11
62.2368
 21
4.66095
  0
LINE
  8
0
 10
62.2368
 20
4.66095
 11
62.3082
 21
4.6124
  0
LINE
  8
0
 10
62.3082
 20
4.6124
 11
62.3764
 21
4.55945
  0
LINE
  8
0
 10
62.3764
 20
4.55945
 11
62.4412
 21
4.50232
  0
LINE
  8
0
 10
62.4412
 20
4.50232
 11
62.5023
 21
4.44124
  0
LINE
  8
0
 10
62.5023
 20
4.44124
 11
62.5594
 21
4.37645
  0
LINE
  8
0
 10
62.5594
 20
4.37645
 11
62.6124
 21
4.3082
  0
LINE
  8
0
 10
62.6124
 20
4.3082
 11
62.6609
 21
4.23676
  0
LINE
  8
0
 10
62.6609
 20
4.23676
 11
62.7049
 21
4.1624
  0
LINE
  8
0
 10
62.7049
 20
4.1624
 11
62.7441
 21
4.08543
  0
LINE
  8
0
 10
62.7441
 20
4.08543
 11
62.7784
 21
4.00616
  0
LINE
  8
0
 10
62.7784
 20
4.00616
 11
62.8077
 21
3.9249
  0
LINE
  8
0
 10
62.8077
 20
3.9249
 11
62.8318
 21
3.84193
  0
LINE
  8
0
 10
62.8318
 20
3.84193
 11
62.8506
 21
3.75764
  0
LINE
  8
0
 10
62.8506
 20
3.75764
 11
62.8642
 21
3.67233
  0
LINE
  8
0
 10
62.8642
 20
3.67233
 11
62.8723
 21
3.58633
  0
LINE
  8
0
 10
62.8723
 20
3.58633
 11
62.875
 21
3.5
  0
LINE
  8
0
 10
62.875
 20
3.5
 11
62.8723
 21
3.41365
  0
LINE
  8
0
 10
62.8723
 20
3.41365
 11
62.8642
 21
3.32765
  0
LINE
  8
0
 10
62.8642
 20
3.32765
 11
62.8506
 21
3.24234
  0
LINE
  8
0
 10
62.8506
 20
3.24234
 11
62.8318
 21
3.15805
  0
LINE
  8
0
 10
62.8318
 20
3.15805
 11
62.8077
 21
3.07509
  0
LINE
  8
0
 10
62.8077
 20
3.07509
 11
62.7784
 21
2.99382
  0
LINE
  8
0
 10
62.7784
 20
2.99382
 11
62.7441
 21
2.91455
  0
LINE
  8
0
 10
62.7441
 20
2.91455
 11
62.7049
 21
2.83759
  0
LINE
  8
0
 10
62.7049
 20
2.83759
 11
62.6609
 21
2.76323
  0
LINE
  8
0
 10
62.6609
 20
2.76323
 11
62.6124
 21
2.69179
  0
LINE
  8
0
 10
62.6124
 20
2.69179
 11
62.5594
 21
2.62354
  0
LINE
  8
0
 10
62.5594
 20
2.62354
 11
62.5023
 21
2.55875
  0
LINE
  8
0
 10
62.5023
 20
2.55875
 11
62.4412
 21
2.49767
  0
LINE
  8
0
 10
62.4412
 20
2.49767
 11
62.3764
 21
2.44054
  0
LINE
  8
0
 10
62.3764
 20
2.44054
 11
62.3082
 21
2.38759
  0
LINE
  8
0
 10
62.3082
 20
2.38759
 11
62.2368
 21
2.33904
  0
LINE
  8
0
 10
62.2368
 20
2.33904
 11
62.1624
 21
2.29507
  0
LINE
  8
0
 10
62.1624
 20
2.29507
 11
62.0854
 21
2.25586
  0
LINE
  8
0
 10
62.0854
 20
2.25586
 11
62.0062
 21
2.22154
  0
LINE
  8
0
 10
62.0062
 20
2.22154
 11
61.9249
 21
2.19229
  0
LINE
  8
0
 10
61.9249
 20
2.19229
 11
61.8419
 21
2.1682
  0
LINE
  8
0
 10
61.8419
 20
2.1682
 11
61.7576
 21
2.14935
  0
LINE
  8
0
 10
61.7576
 20
2.14935
 11
61.6723
 21
2.13583
  0
LINE
  8
0
 10
61.6723
 20
2.13583
 11
61.5863
 21
2.1277
  0
LINE
  8
0
 10
61.5863
 20
2.1277
 11
61.5
 21
2.125
  0
LINE
  8
0
 10
61.5
 20
2.125
 11
61.4137
 21
2.1277
  0
ENDSEC
  0
SECTION
  2
OBJECTS
  0
DICTIONARY
  0
ENDSEC
  0
EOF
