  0
SECTION
  2
BLOCKS
  0
ENDSEC
  0
SECTION
  2
ENTITIES
  0
LINE
  8
0
 10
3.69464
 20
49.4061
 11
3.88852
 21
49.4244
  0
LINE
  8
0
 10
3.88852
 20
49.4244
 11
4.08087
 21
49.4549
  0
LINE
  8
0
 10
4.08087
 20
49.4549
 11
4.27094
 21
49.4974
  0
LINE
  8
0
 10
4.27094
 20
49.4974
 11
4.45795
 21
49.5517
  0
LINE
  8
0
 10
4.45795
 20
49.5517
 11
4.64117
 21
49.6177
  0
LINE
  8
0
 10
4.64117
 20
49.6177
 11
4.81992
 21
49.695
  0
LINE
  8
0
 10
4.81992
 20
49.695
 11
4.99342
 21
49.7834
  0
LINE
  8
0
 10
4.99342
 20
49.7834
 11
5.16106
 21
49.8826
  0
LINE
  8
0
 10
5.16106
 20
49.8826
 11
5.32213
 21
49.992
  0
LINE
  8
0
 10
5.32213
 20
49.992
 11
5.47601
 21
50.1114
  0
LINE
  8
0
 10
5.47601
 20
50.1114
 11
5.62209
 21
50.2402
  0
LINE
  8
0
 10
5.62209
 20
50.2402
 11
5.7598
 21
50.3779
  0
LINE
  8
0
 10
5.7598
 20
50.3779
 11
5.88858
 21
50.524
  0
LINE
  8
0
 10
5.88858
 20
50.524
 11
6.00795
 21
50.6779
  0
LINE
  8
0
 10
6.00795
 20
50.6779
 11
6.11742
 21
50.8389
  0
LINE
  8
0
 10
6.11742
 20
50.8389
 11
6.21654
 21
51.0066
  0
LINE
  8
0
 10
6.21654
 20
51.0066
 11
6.30496
 21
51.1801
  0
LINE
  8
0
 10
6.30496
 20
51.1801
 11
6.38229
 21
51.3588
  0
LINE
  8
0
 10
6.38229
 20
51.3588
 11
6.44827
 21
51.542
  0
LINE
  8
0
 10
6.44827
 20
51.542
 11
6.50259
 21
51.729
  0
LINE
  8
0
 10
6.50259
 20
51.729
 11
6.54509
 21
51.9191
  0
LINE
  8
0
 10
6.54509
 20
51.9191
 11
6.57555
 21
52.1115
  0
LINE
  8
0
 10
6.57555
 20
52.1115
 11
6.59387
 21
52.3053
  0
LINE
  8
0
 10
6.59387
 20
52.3053
 11
6.59999
 21
52.5
  0
LINE
  8
0
 10
6.59999
 20
52.5
 11
6.59387
 21
52.6946
  0
LINE
  8
0
 10
6.59387
 20
52.6946
 11
6.57555
 21
52.8885
  0
LINE
  8
0
 10
6.57555
 20
52.8885
 11
6.54509
 21
53.0809
  0
LINE
  8
0
 10
6.54509
 20
53.0809
 11
6.50259
 21
53.2709
  0
LINE
  8
0
 10
6.50259
 20
53.2709
 11
6.44827
 21
53.4579
  0
LINE
  8
0
 10
6.44827
 20
53.4579
 11
6.38229
 21
53.6412
  0
LINE
  8
0
 10
6.38229
 20
53.6412
 11
6.30496
 21
53.8199
  0
LINE
  8
0
 10
6.30496
 20
53.8199
 11
6.21654
 21
53.9934
  0
LINE
  8
0
 10
6.21654
 20
53.9934
 11
6.11742
 21
54.1611
  0
LINE
  8
0
 10
6.11742
 20
54.1611
 11
6.00795
 21
54.3221
  0
LINE
  8
0
 10
6.00795
 20
54.3221
 11
5.88858
 21
54.476
  0
LINE
  8
0
 10
5.88858
 20
54.476
 11
5.7598
 21
54.6221
  0
LINE
  8
0
 10
5.7598
 20
54.6221
 11
5.62209
 21
54.7598
  0
LINE
  8
0
 10
5.62209
 20
54.7598
 11
5.47601
 21
54.8886
  0
LINE
  8
0
 10
5.47601
 20
54.8886
 11
5.32213
 21
55.0079
  0
LINE
  8
0
 10
5.32213
 20
55.0079
 11
5.16106
 21
55.1174
  0
LINE
  8
0
 10
5.16106
 20
55.1174
 11
4.99342
 21
55.2165
  0
LINE
  8
0
 10
4.99342
 20
55.2165
 11
4.81992
 21
55.305
  0
LINE
  8
0
 10
4.81992
 20
55.305
 11
4.64117
 21
55.3823
  0
LINE
  8
0
 10
4.64117
 20
55.3823
 11
4.45795
 21
55.4483
  0
LINE
  8
0
 10
4.45795
 20
55.4483
 11
4.27094
 21
55.5026
  0
LINE
  8
0
 10
4.27094
 20
55.5026
 11
4.08087
 21
55.5451
  0
LINE
  8
0
 10
4.08087
 20
55.5451
 11
3.88852
 21
55.5755
  0
LINE
  8
0
 10
3.88852
 20
55.5755
 11
3.69464
 21
55.5939
  0
LINE
  8
0
 10
3.69464
 20
55.5939
 11
3.5
 21
55.6
  0
LINE
  8
0
 10
3.5
 20
55.6
 11
3.30534
 21
55.5939
  0
LINE
  8
0
 10
3.30534
 20
55.5939
 11
3.11147
 21
55.5755
  0
LINE
  8
0
 10
3.11147
 20
55.5755
 11
2.91911
 21
55.5451
  0
LINE
  8
0
 10
2.91911
 20
55.5451
 11
2.72905
 21
55.5026
  0
LINE
  8
0
 10
2.72905
 20
55.5026
 11
2.54204
 21
55.4483
  0
LINE
  8
0
 10
2.54204
 20
55.4483
 11
2.35881
 21
55.3823
  0
LINE
  8
0
 10
2.35881
 20
55.3823
 11
2.18007
 21
55.305
  0
LINE
  8
0
 10
2.18007
 20
55.305
 11
2.00656
 21
55.2165
  0
LINE
  8
0
 10
2.00656
 20
55.2165
 11
1.83893
 21
55.1174
  0
LINE
  8
0
 10
1.83893
 20
55.1174
 11
1.67786
 21
55.0079
  0
LINE
  8
0
 10
1.67786
 20
55.0079
 11
1.52397
 21
54.8886
  0
LINE
  8
0
 10
1.52397
 20
54.8886
 11
1.3779
 21
54.7598
  0
LINE
  8
0
 10
1.3779
 20
54.7598
 11
1.24019
 21
54.6221
  0
LINE
  8
0
 10
1.24019
 20
54.6221
 11
1.1114
 21
54.476
  0
LINE
  8
0
 10
1.1114
 20
54.476
 11
0.992035
 21
54.3221
  0
LINE
  8
0
 10
0.992035
 20
54.3221
 11
0.882568
 21
54.1611
  0
LINE
  8
0
 10
0.882568
 20
54.1611
 11
0.783447
 21
53.9934
  0
LINE
  8
0
 10
0.783447
 20
53.9934
 11
0.695023
 21
53.8199
  0
LINE
  8
0
 10
0.695023
 20
53.8199
 11
0.617691
 21
53.6412
  0
LINE
  8
0
 10
0.617691
 20
53.6412
 11
0.551712
 21
53.4579
  0
LINE
  8
0
 10
0.551712
 20
53.4579
 11
0.497391
 21
53.2709
  0
LINE
  8
0
 10
0.497391
 20
53.2709
 11
0.454895
 21
53.0809
  0
LINE
  8
0
 10
0.454895
 20
53.0809
 11
0.424438
 21
52.8885
  0
LINE
  8
0
 10
0.424438
 20
52.8885
 11
0.406113
 21
52.6946
  0
LINE
  8
0
 10
0.406113
 20
52.6946
 11
0.399994
 21
52.5
  0
LINE
  8
0
 10
0.399994
 20
52.5
 11
0.406113
 21
52.3053
  0
LINE
  8
0
 10
0.406113
 20
52.3053
 11
0.424438
 21
52.1115
  0
LINE
  8
0
 10
0.424438
 20
52.1115
 11
0.454895
 21
51.9191
  0
LINE
  8
0
 10
0.454895
 20
51.9191
 11
0.497391
 21
51.729
  0
LINE
  8
0
 10
0.497391
 20
51.729
 11
0.551712
 21
51.542
  0
LINE
  8
0
 10
0.551712
 20
51.542
 11
0.617691
 21
51.3588
  0
LINE
  8
0
 10
0.617691
 20
51.3588
 11
0.695023
 21
51.1801
  0
LINE
  8
0
 10
0.695023
 20
51.1801
 11
0.783447
 21
51.0066
  0
LINE
  8
0
 10
0.783447
 20
51.0066
 11
0.882568
 21
50.8389
  0
LINE
  8
0
 10
0.882568
 20
50.8389
 11
0.992035
 21
50.6779
  0
LINE
  8
0
 10
0.992035
 20
50.6779
 11
1.1114
 21
50.524
  0
LINE
  8
0
 10
1.1114
 20
50.524
 11
1.24019
 21
50.3779
  0
LINE
  8
0
 10
1.24019
 20
50.3779
 11
1.3779
 21
50.2402
  0
LINE
  8
0
 10
1.3779
 20
50.2402
 11
1.52397
 21
50.1114
  0
LINE
  8
0
 10
1.52397
 20
50.1114
 11
1.67786
 21
49.992
  0
LINE
  8
0
 10
1.67786
 20
49.992
 11
1.83893
 21
49.8826
  0
LINE
  8
0
 10
1.83893
 20
49.8826
 11
2.00656
 21
49.7834
  0
LINE
  8
0
 10
2.00656
 20
49.7834
 11
2.18007
 21
49.695
  0
LINE
  8
0
 10
2.18007
 20
49.695
 11
2.35881
 21
49.6177
  0
LINE
  8
0
 10
2.35881
 20
49.6177
 11
2.54204
 21
49.5517
  0
LINE
  8
0
 10
2.54204
 20
49.5517
 11
2.72905
 21
49.4974
  0
LINE
  8
0
 10
2.72905
 20
49.4974
 11
2.91911
 21
49.4549
  0
LINE
  8
0
 10
2.91911
 20
49.4549
 11
3.11147
 21
49.4244
  0
LINE
  8
0
 10
3.11147
 20
49.4244
 11
3.30534
 21
49.4061
  0
LINE
  8
0
 10
3.30534
 20
49.4061
 11
3.49998
 21
49.4
  0
LINE
  8
0
 10
3.49998
 20
49.4
 11
3.69464
 21
49.4061
  0
LINE
  8
0
 10
61.6946
 20
49.4061
 11
61.8885
 21
49.4244
  0
LINE
  8
0
 10
61.8885
 20
49.4244
 11
62.0809
 21
49.4549
  0
LINE
  8
0
 10
62.0809
 20
49.4549
 11
62.2709
 21
49.4974
  0
LINE
  8
0
 10
62.2709
 20
49.4974
 11
62.4579
 21
49.5517
  0
LINE
  8
0
 10
62.4579
 20
49.5517
 11
62.6412
 21
49.6177
  0
LINE
  8
0
 10
62.6412
 20
49.6177
 11
62.8199
 21
49.695
  0
LINE
  8
0
 10
62.8199
 20
49.695
 11
62.9934
 21
49.7834
  0
LINE
  8
0
 10
62.9934
 20
49.7834
 11
63.1611
 21
49.8826
  0
LINE
  8
0
 10
63.1611
 20
49.8826
 11
63.3221
 21
49.992
  0
LINE
  8
0
 10
63.3221
 20
49.992
 11
63.476
 21
50.1114
  0
LINE
  8
0
 10
63.476
 20
50.1114
 11
63.6221
 21
50.2402
  0
LINE
  8
0
 10
63.6221
 20
50.2402
 11
63.7598
 21
50.3779
  0
LINE
  8
0
 10
63.7598
 20
50.3779
 11
63.8886
 21
50.524
  0
LINE
  8
0
 10
63.8886
 20
50.524
 11
64.0079
 21
50.6779
  0
LINE
  8
0
 10
64.0079
 20
50.6779
 11
64.1174
 21
50.8389
  0
LINE
  8
0
 10
64.1174
 20
50.8389
 11
64.2165
 21
51.0066
  0
LINE
  8
0
 10
64.2165
 20
51.0066
 11
64.305
 21
51.1801
  0
LINE
  8
0
 10
64.305
 20
51.1801
 11
64.3823
 21
51.3588
  0
LINE
  8
0
 10
64.3823
 20
51.3588
 11
64.4483
 21
51.542
  0
LINE
  8
0
 10
64.4483
 20
51.542
 11
64.5026
 21
51.729
  0
LINE
  8
0
 10
64.5026
 20
51.729
 11
64.5451
 21
51.9191
  0
LINE
  8
0
 10
64.5451
 20
51.9191
 11
64.5755
 21
52.1115
  0
LINE
  8
0
 10
64.5755
 20
52.1115
 11
64.5939
 21
52.3053
  0
LINE
  8
0
 10
64.5939
 20
52.3053
 11
64.6
 21
52.5
  0
LINE
  8
0
 10
64.6
 20
52.5
 11
64.5939
 21
52.6946
  0
LINE
  8
0
 10
64.5939
 20
52.6946
 11
64.5755
 21
52.8885
  0
LINE
  8
0
 10
64.5755
 20
52.8885
 11
64.5451
 21
53.0809
  0
LINE
  8
0
 10
64.5451
 20
53.0809
 11
64.5026
 21
53.2709
  0
LINE
  8
0
 10
64.5026
 20
53.2709
 11
64.4483
 21
53.4579
  0
LINE
  8
0
 10
64.4483
 20
53.4579
 11
64.3823
 21
53.6412
  0
LINE
  8
0
 10
64.3823
 20
53.6412
 11
64.305
 21
53.8199
  0
LINE
  8
0
 10
64.305
 20
53.8199
 11
64.2165
 21
53.9934
  0
LINE
  8
0
 10
64.2165
 20
53.9934
 11
64.1174
 21
54.1611
  0
LINE
  8
0
 10
64.1174
 20
54.1611
 11
64.0079
 21
54.3221
  0
LINE
  8
0
 10
64.0079
 20
54.3221
 11
63.8886
 21
54.476
  0
LINE
  8
0
 10
63.8886
 20
54.476
 11
63.7598
 21
54.6221
  0
LINE
  8
0
 10
63.7598
 20
54.6221
 11
63.6221
 21
54.7598
  0
LINE
  8
0
 10
63.6221
 20
54.7598
 11
63.476
 21
54.8886
  0
LINE
  8
0
 10
63.476
 20
54.8886
 11
63.3221
 21
55.0079
  0
LINE
  8
0
 10
63.3221
 20
55.0079
 11
63.1611
 21
55.1174
  0
LINE
  8
0
 10
63.1611
 20
55.1174
 11
62.9934
 21
55.2165
  0
LINE
  8
0
 10
62.9934
 20
55.2165
 11
62.8199
 21
55.305
  0
LINE
  8
0
 10
62.8199
 20
55.305
 11
62.6412
 21
55.3823
  0
LINE
  8
0
 10
62.6412
 20
55.3823
 11
62.4579
 21
55.4483
  0
LINE
  8
0
 10
62.4579
 20
55.4483
 11
62.2709
 21
55.5026
  0
LINE
  8
0
 10
62.2709
 20
55.5026
 11
62.0809
 21
55.5451
  0
LINE
  8
0
 10
62.0809
 20
55.5451
 11
61.8885
 21
55.5755
  0
LINE
  8
0
 10
61.8885
 20
55.5755
 11
61.6946
 21
55.5939
  0
LINE
  8
0
 10
61.6946
 20
55.5939
 11
61.5
 21
55.6
  0
LINE
  8
0
 10
61.5
 20
55.6
 11
61.3053
 21
55.5939
  0
LINE
  8
0
 10
61.3053
 20
55.5939
 11
61.1115
 21
55.5755
  0
LINE
  8
0
 10
61.1115
 20
55.5755
 11
60.9191
 21
55.5451
  0
LINE
  8
0
 10
60.9191
 20
55.5451
 11
60.729
 21
55.5026
  0
LINE
  8
0
 10
60.729
 20
55.5026
 11
60.542
 21
55.4483
  0
LINE
  8
0
 10
60.542
 20
55.4483
 11
60.3588
 21
55.3823
  0
LINE
  8
0
 10
60.3588
 20
55.3823
 11
60.1801
 21
55.305
  0
LINE
  8
0
 10
60.1801
 20
55.305
 11
60.0066
 21
55.2165
  0
LINE
  8
0
 10
60.0066
 20
55.2165
 11
59.8389
 21
55.1174
  0
LINE
  8
0
 10
59.8389
 20
55.1174
 11
59.6779
 21
55.0079
  0
LINE
  8
0
 10
59.6779
 20
55.0079
 11
59.524
 21
54.8886
  0
LINE
  8
0
 10
59.524
 20
54.8886
 11
59.3779
 21
54.7598
  0
LINE
  8
0
 10
59.3779
 20
54.7598
 11
59.2402
 21
54.6221
  0
LINE
  8
0
 10
59.2402
 20
54.6221
 11
59.1114
 21
54.476
  0
LINE
  8
0
 10
59.1114
 20
54.476
 11
58.992
 21
54.3221
  0
LINE
  8
0
 10
58.992
 20
54.3221
 11
58.8826
 21
54.1611
  0
LINE
  8
0
 10
58.8826
 20
54.1611
 11
58.7834
 21
53.9934
  0
LINE
  8
0
 10
58.7834
 20
53.9934
 11
58.695
 21
53.8199
  0
LINE
  8
0
 10
58.695
 20
53.8199
 11
58.6177
 21
53.6412
  0
LINE
  8
0
 10
58.6177
 20
53.6412
 11
58.5517
 21
53.4579
  0
LINE
  8
0
 10
58.5517
 20
53.4579
 11
58.4974
 21
53.2709
  0
LINE
  8
0
 10
58.4974
 20
53.2709
 11
58.4549
 21
53.0809
  0
LINE
  8
0
 10
58.4549
 20
53.0809
 11
58.4244
 21
52.8885
  0
LINE
  8
0
 10
58.4244
 20
52.8885
 11
58.4061
 21
52.6946
  0
LINE
  8
0
 10
58.4061
 20
52.6946
 11
58.4
 21
52.5
  0
LINE
  8
0
 10
58.4
 20
52.5
 11
58.4061
 21
52.3053
  0
LINE
  8
0
 10
58.4061
 20
52.3053
 11
58.4244
 21
52.1115
  0
LINE
  8
0
 10
58.4244
 20
52.1115
 11
58.4549
 21
51.9191
  0
LINE
  8
0
 10
58.4549
 20
51.9191
 11
58.4974
 21
51.729
  0
LINE
  8
0
 10
58.4974
 20
51.729
 11
58.5517
 21
51.542
  0
LINE
  8
0
 10
58.5517
 20
51.542
 11
58.6177
 21
51.3588
  0
LINE
  8
0
 10
58.6177
 20
51.3588
 11
58.695
 21
51.1801
  0
LINE
  8
0
 10
58.695
 20
51.1801
 11
58.7834
 21
51.0066
  0
LINE
  8
0
 10
58.7834
 20
51.0066
 11
58.8826
 21
50.8389
  0
LINE
  8
0
 10
58.8826
 20
50.8389
 11
58.992
 21
50.6779
  0
LINE
  8
0
 10
58.992
 20
50.6779
 11
59.1114
 21
50.524
  0
LINE
  8
0
 10
59.1114
 20
50.524
 11
59.2402
 21
50.3779
  0
LINE
  8
0
 10
59.2402
 20
50.3779
 11
59.3779
 21
50.2402
  0
LINE
  8
0
 10
59.3779
 20
50.2402
 11
59.524
 21
50.1114
  0
LINE
  8
0
 10
59.524
 20
50.1114
 11
59.6779
 21
49.992
  0
LINE
  8
0
 10
59.6779
 20
49.992
 11
59.8389
 21
49.8826
  0
LINE
  8
0
 10
59.8389
 20
49.8826
 11
60.0066
 21
49.7834
  0
LINE
  8
0
 10
60.0066
 20
49.7834
 11
60.1801
 21
49.695
  0
LINE
  8
0
 10
60.1801
 20
49.695
 11
60.3588
 21
49.6177
  0
LINE
  8
0
 10
60.3588
 20
49.6177
 11
60.542
 21
49.5517
  0
LINE
  8
0
 10
60.542
 20
49.5517
 11
60.729
 21
49.4974
  0
LINE
  8
0
 10
60.729
 20
49.4974
 11
60.9191
 21
49.4549
  0
LINE
  8
0
 10
60.9191
 20
49.4549
 11
61.1115
 21
49.4244
  0
LINE
  8
0
 10
61.1115
 20
49.4244
 11
61.3053
 21
49.4061
  0
LINE
  8
0
 10
61.3053
 20
49.4061
 11
61.5
 21
49.4
  0
LINE
  8
0
 10
61.5
 20
49.4
 11
61.6946
 21
49.4061
  0
LINE
  8
0
 10
3.69464
 20
0.406113
 11
3.88852
 21
0.424438
  0
LINE
  8
0
 10
3.88852
 20
0.424438
 11
4.08087
 21
0.454895
  0
LINE
  8
0
 10
4.08087
 20
0.454895
 11
4.27094
 21
0.497391
  0
LINE
  8
0
 10
4.27094
 20
0.497391
 11
4.45795
 21
0.551712
  0
LINE
  8
0
 10
4.45795
 20
0.551712
 11
4.64117
 21
0.617691
  0
LINE
  8
0
 10
4.64117
 20
0.617691
 11
4.81992
 21
0.695023
  0
LINE
  8
0
 10
4.81992
 20
0.695023
 11
4.99342
 21
0.783447
  0
LINE
  8
0
 10
4.99342
 20
0.783447
 11
5.16106
 21
0.882568
  0
LINE
  8
0
 10
5.16106
 20
0.882568
 11
5.32213
 21
0.992035
  0
LINE
  8
0
 10
5.32213
 20
0.992035
 11
5.47601
 21
1.1114
  0
LINE
  8
0
 10
5.47601
 20
1.1114
 11
5.62209
 21
1.24019
  0
LINE
  8
0
 10
5.62209
 20
1.24019
 11
5.7598
 21
1.3779
  0
LINE
  8
0
 10
5.7598
 20
1.3779
 11
5.88858
 21
1.52397
  0
LINE
  8
0
 10
5.88858
 20
1.52397
 11
6.00795
 21
1.67786
  0
LINE
  8
0
 10
6.00795
 20
1.67786
 11
6.11742
 21
1.83893
  0
LINE
  8
0
 10
6.11742
 20
1.83893
 11
6.21654
 21
2.00656
  0
LINE
  8
0
 10
6.21654
 20
2.00656
 11
6.30496
 21
2.18007
  0
LINE
  8
0
 10
6.30496
 20
2.18007
 11
6.38229
 21
2.35881
  0
LINE
  8
0
 10
6.38229
 20
2.35881
 11
6.44827
 21
2.54204
  0
LINE
  8
0
 10
6.44827
 20
2.54204
 11
6.50259
 21
2.72905
  0
LINE
  8
0
 10
6.50259
 20
2.72905
 11
6.54509
 21
2.91911
  0
LINE
  8
0
 10
6.54509
 20
2.91911
 11
6.57555
 21
3.11147
  0
LINE
  8
0
 10
6.57555
 20
3.11147
 11
6.59387
 21
3.30534
  0
LINE
  8
0
 10
6.59387
 20
3.30534
 11
6.59999
 21
3.5
  0
LINE
  8
0
 10
6.59999
 20
3.5
 11
6.59387
 21
3.69464
  0
LINE
  8
0
 10
6.59387
 20
3.69464
 11
6.57555
 21
3.88852
  0
LINE
  8
0
 10
6.57555
 20
3.88852
 11
6.54509
 21
4.08087
  0
LINE
  8
0
 10
6.54509
 20
4.08087
 11
6.50259
 21
4.27094
  0
LINE
  8
0
 10
6.50259
 20
4.27094
 11
6.44827
 21
4.45795
  0
LINE
  8
0
 10
6.44827
 20
4.45795
 11
6.38229
 21
4.64117
  0
LINE
  8
0
 10
6.38229
 20
4.64117
 11
6.30496
 21
4.81992
  0
LINE
  8
0
 10
6.30496
 20
4.81992
 11
6.21654
 21
4.99342
  0
LINE
  8
0
 10
6.21654
 20
4.99342
 11
6.11742
 21
5.16106
  0
LINE
  8
0
 10
6.11742
 20
5.16106
 11
6.00795
 21
5.32213
  0
LINE
  8
0
 10
6.00795
 20
5.32213
 11
5.88858
 21
5.47601
  0
LINE
  8
0
 10
5.88858
 20
5.47601
 11
5.7598
 21
5.62209
  0
LINE
  8
0
 10
5.7598
 20
5.62209
 11
5.62209
 21
5.7598
  0
LINE
  8
0
 10
5.62209
 20
5.7598
 11
5.47601
 21
5.88858
  0
LINE
  8
0
 10
5.47601
 20
5.88858
 11
5.32213
 21
6.00795
  0
LINE
  8
0
 10
5.32213
 20
6.00795
 11
5.16106
 21
6.11742
  0
LINE
  8
0
 10
5.16106
 20
6.11742
 11
4.99342
 21
6.21654
  0
LINE
  8
0
 10
4.99342
 20
6.21654
 11
4.81992
 21
6.30496
  0
LINE
  8
0
 10
4.81992
 20
6.30496
 11
4.64117
 21
6.38229
  0
LINE
  8
0
 10
4.64117
 20
6.38229
 11
4.45795
 21
6.44827
  0
LINE
  8
0
 10
4.45795
 20
6.44827
 11
4.27094
 21
6.50259
  0
LINE
  8
0
 10
4.27094
 20
6.50259
 11
4.08087
 21
6.54509
  0
LINE
  8
0
 10
4.08087
 20
6.54509
 11
3.88852
 21
6.57555
  0
LINE
  8
0
 10
3.88852
 20
6.57555
 11
3.69464
 21
6.59387
  0
LINE
  8
0
 10
3.69464
 20
6.59387
 11
3.5
 21
6.59999
  0
LINE
  8
0
 10
3.5
 20
6.59999
 11
3.30534
 21
6.59387
  0
LINE
  8
0
 10
3.30534
 20
6.59387
 11
3.11147
 21
6.57555
  0
LINE
  8
0
 10
3.11147
 20
6.57555
 11
2.91911
 21
6.54509
  0
LINE
  8
0
 10
2.91911
 20
6.54509
 11
2.72905
 21
6.50259
  0
LINE
  8
0
 10
2.72905
 20
6.50259
 11
2.54204
 21
6.44827
  0
LINE
  8
0
 10
2.54204
 20
6.44827
 11
2.35881
 21
6.38229
  0
LINE
  8
0
 10
2.35881
 20
6.38229
 11
2.18007
 21
6.30496
  0
LINE
  8
0
 10
2.18007
 20
6.30496
 11
2.00656
 21
6.21654
  0
LINE
  8
0
 10
2.00656
 20
6.21654
 11
1.83893
 21
6.11742
  0
LINE
  8
0
 10
1.83893
 20
6.11742
 11
1.67786
 21
6.00795
  0
LINE
  8
0
 10
1.67786
 20
6.00795
 11
1.52397
 21
5.88858
  0
LINE
  8
0
 10
1.52397
 20
5.88858
 11
1.3779
 21
5.7598
  0
LINE
  8
0
 10
1.3779
 20
5.7598
 11
1.24019
 21
5.62209
  0
LINE
  8
0
 10
1.24019
 20
5.62209
 11
1.1114
 21
5.47601
  0
LINE
  8
0
 10
1.1114
 20
5.47601
 11
0.992035
 21
5.32213
  0
LINE
  8
0
 10
0.992035
 20
5.32213
 11
0.882568
 21
5.16106
  0
LINE
  8
0
 10
0.882568
 20
5.16106
 11
0.783447
 21
4.99342
  0
LINE
  8
0
 10
0.783447
 20
4.99342
 11
0.695023
 21
4.81992
  0
LINE
  8
0
 10
0.695023
 20
4.81992
 11
0.617691
 21
4.64117
  0
LINE
  8
0
 10
0.617691
 20
4.64117
 11
0.551712
 21
4.45795
  0
LINE
  8
0
 10
0.551712
 20
4.45795
 11
0.497391
 21
4.27094
  0
LINE
  8
0
 10
0.497391
 20
4.27094
 11
0.454895
 21
4.08087
  0
LINE
  8
0
 10
0.454895
 20
4.08087
 11
0.424438
 21
3.88852
  0
LINE
  8
0
 10
0.424438
 20
3.88852
 11
0.406113
 21
3.69464
  0
LINE
  8
0
 10
0.406113
 20
3.69464
 11
0.399994
 21
3.5
  0
LINE
  8
0
 10
0.399994
 20
3.5
 11
0.406113
 21
3.30534
  0
LINE
  8
0
 10
0.406113
 20
3.30534
 11
0.424438
 21
3.11147
  0
LINE
  8
0
 10
0.424438
 20
3.11147
 11
0.454895
 21
2.91911
  0
LINE
  8
0
 10
0.454895
 20
2.91911
 11
0.497391
 21
2.72905
  0
LINE
  8
0
 10
0.497391
 20
2.72905
 11
0.551712
 21
2.54204
  0
LINE
  8
0
 10
0.551712
 20
2.54204
 11
0.617691
 21
2.35881
  0
LINE
  8
0
 10
0.617691
 20
2.35881
 11
0.695023
 21
2.18007
  0
LINE
  8
0
 10
0.695023
 20
2.18007
 11
0.783447
 21
2.00656
  0
LINE
  8
0
 10
0.783447
 20
2.00656
 11
0.882568
 21
1.83893
  0
LINE
  8
0
 10
0.882568
 20
1.83893
 11
0.992035
 21
1.67786
  0
LINE
  8
0
 10
0.992035
 20
1.67786
 11
1.1114
 21
1.52397
  0
LINE
  8
0
 10
1.1114
 20
1.52397
 11
1.24019
 21
1.3779
  0
LINE
  8
0
 10
1.24019
 20
1.3779
 11
1.3779
 21
1.24019
  0
LINE
  8
0
 10
1.3779
 20
1.24019
 11
1.52397
 21
1.1114
  0
LINE
  8
0
 10
1.52397
 20
1.1114
 11
1.67786
 21
0.992035
  0
LINE
  8
0
 10
1.67786
 20
0.992035
 11
1.83893
 21
0.882568
  0
LINE
  8
0
 10
1.83893
 20
0.882568
 11
2.00656
 21
0.783447
  0
LINE
  8
0
 10
2.00656
 20
0.783447
 11
2.18007
 21
0.695023
  0
LINE
  8
0
 10
2.18007
 20
0.695023
 11
2.35881
 21
0.617691
  0
LINE
  8
0
 10
2.35881
 20
0.617691
 11
2.54204
 21
0.551712
  0
LINE
  8
0
 10
2.54204
 20
0.551712
 11
2.72905
 21
0.497391
  0
LINE
  8
0
 10
2.72905
 20
0.497391
 11
2.91911
 21
0.454895
  0
LINE
  8
0
 10
2.91911
 20
0.454895
 11
3.11147
 21
0.424438
  0
LINE
  8
0
 10
3.11147
 20
0.424438
 11
3.30534
 21
0.406113
  0
LINE
  8
0
 10
3.30534
 20
0.406113
 11
3.49998
 21
0.399994
  0
LINE
  8
0
 10
3.49998
 20
0.399994
 11
3.69464
 21
0.406113
  0
LINE
  8
0
 10
61.6946
 20
0.406113
 11
61.8885
 21
0.424438
  0
LINE
  8
0
 10
61.8885
 20
0.424438
 11
62.0809
 21
0.454895
  0
LINE
  8
0
 10
62.0809
 20
0.454895
 11
62.2709
 21
0.497391
  0
LINE
  8
0
 10
62.2709
 20
0.497391
 11
62.4579
 21
0.551712
  0
LINE
  8
0
 10
62.4579
 20
0.551712
 11
62.6412
 21
0.617691
  0
LINE
  8
0
 10
62.6412
 20
0.617691
 11
62.8199
 21
0.695023
  0
LINE
  8
0
 10
62.8199
 20
0.695023
 11
62.9934
 21
0.783447
  0
LINE
  8
0
 10
62.9934
 20
0.783447
 11
63.1611
 21
0.882568
  0
LINE
  8
0
 10
63.1611
 20
0.882568
 11
63.3221
 21
0.992035
  0
LINE
  8
0
 10
63.3221
 20
0.992035
 11
63.476
 21
1.1114
  0
LINE
  8
0
 10
63.476
 20
1.1114
 11
63.6221
 21
1.24019
  0
LINE
  8
0
 10
63.6221
 20
1.24019
 11
63.7598
 21
1.3779
  0
LINE
  8
0
 10
63.7598
 20
1.3779
 11
63.8886
 21
1.52397
  0
LINE
  8
0
 10
63.8886
 20
1.52397
 11
64.0079
 21
1.67786
  0
LINE
  8
0
 10
64.0079
 20
1.67786
 11
64.1174
 21
1.83893
  0
LINE
  8
0
 10
64.1174
 20
1.83893
 11
64.2165
 21
2.00656
  0
LINE
  8
0
 10
64.2165
 20
2.00656
 11
64.305
 21
2.18007
  0
LINE
  8
0
 10
64.305
 20
2.18007
 11
64.3823
 21
2.35881
  0
LINE
  8
0
 10
64.3823
 20
2.35881
 11
64.4483
 21
2.54204
  0
LINE
  8
0
 10
64.4483
 20
2.54204
 11
64.5026
 21
2.72905
  0
LINE
  8
0
 10
64.5026
 20
2.72905
 11
64.5451
 21
2.91911
  0
LINE
  8
0
 10
64.5451
 20
2.91911
 11
64.5755
 21
3.11147
  0
LINE
  8
0
 10
64.5755
 20
3.11147
 11
64.5939
 21
3.30534
  0
LINE
  8
0
 10
64.5939
 20
3.30534
 11
64.6
 21
3.5
  0
LINE
  8
0
 10
64.6
 20
3.5
 11
64.5939
 21
3.69464
  0
LINE
  8
0
 10
64.5939
 20
3.69464
 11
64.5755
 21
3.88852
  0
LINE
  8
0
 10
64.5755
 20
3.88852
 11
64.5451
 21
4.08087
  0
LINE
  8
0
 10
64.5451
 20
4.08087
 11
64.5026
 21
4.27094
  0
LINE
  8
0
 10
64.5026
 20
4.27094
 11
64.4483
 21
4.45795
  0
LINE
  8
0
 10
64.4483
 20
4.45795
 11
64.3823
 21
4.64117
  0
LINE
  8
0
 10
64.3823
 20
4.64117
 11
64.305
 21
4.81992
  0
LINE
  8
0
 10
64.305
 20
4.81992
 11
64.2165
 21
4.99342
  0
LINE
  8
0
 10
64.2165
 20
4.99342
 11
64.1174
 21
5.16106
  0
LINE
  8
0
 10
64.1174
 20
5.16106
 11
64.0079
 21
5.32213
  0
LINE
  8
0
 10
64.0079
 20
5.32213
 11
63.8886
 21
5.47601
  0
LINE
  8
0
 10
63.8886
 20
5.47601
 11
63.7598
 21
5.62209
  0
LINE
  8
0
 10
63.7598
 20
5.62209
 11
63.6221
 21
5.7598
  0
LINE
  8
0
 10
63.6221
 20
5.7598
 11
63.476
 21
5.88858
  0
LINE
  8
0
 10
63.476
 20
5.88858
 11
63.3221
 21
6.00795
  0
LINE
  8
0
 10
63.3221
 20
6.00795
 11
63.1611
 21
6.11742
  0
LINE
  8
0
 10
63.1611
 20
6.11742
 11
62.9934
 21
6.21654
  0
LINE
  8
0
 10
62.9934
 20
6.21654
 11
62.8199
 21
6.30496
  0
LINE
  8
0
 10
62.8199
 20
6.30496
 11
62.6412
 21
6.38229
  0
LINE
  8
0
 10
62.6412
 20
6.38229
 11
62.4579
 21
6.44827
  0
LINE
  8
0
 10
62.4579
 20
6.44827
 11
62.2709
 21
6.50259
  0
LINE
  8
0
 10
62.2709
 20
6.50259
 11
62.0809
 21
6.54509
  0
LINE
  8
0
 10
62.0809
 20
6.54509
 11
61.8885
 21
6.57555
  0
LINE
  8
0
 10
61.8885
 20
6.57555
 11
61.6946
 21
6.59387
  0
LINE
  8
0
 10
61.6946
 20
6.59387
 11
61.5
 21
6.59999
  0
LINE
  8
0
 10
61.5
 20
6.59999
 11
61.3053
 21
6.59387
  0
LINE
  8
0
 10
61.3053
 20
6.59387
 11
61.1115
 21
6.57555
  0
LINE
  8
0
 10
61.1115
 20
6.57555
 11
60.9191
 21
6.54509
  0
LINE
  8
0
 10
60.9191
 20
6.54509
 11
60.729
 21
6.50259
  0
LINE
  8
0
 10
60.729
 20
6.50259
 11
60.542
 21
6.44827
  0
LINE
  8
0
 10
60.542
 20
6.44827
 11
60.3588
 21
6.38229
  0
LINE
  8
0
 10
60.3588
 20
6.38229
 11
60.1801
 21
6.30496
  0
LINE
  8
0
 10
60.1801
 20
6.30496
 11
60.0066
 21
6.21654
  0
LINE
  8
0
 10
60.0066
 20
6.21654
 11
59.8389
 21
6.11742
  0
LINE
  8
0
 10
59.8389
 20
6.11742
 11
59.6779
 21
6.00795
  0
LINE
  8
0
 10
59.6779
 20
6.00795
 11
59.524
 21
5.88858
  0
LINE
  8
0
 10
59.524
 20
5.88858
 11
59.3779
 21
5.7598
  0
LINE
  8
0
 10
59.3779
 20
5.7598
 11
59.2402
 21
5.62209
  0
LINE
  8
0
 10
59.2402
 20
5.62209
 11
59.1114
 21
5.47601
  0
LINE
  8
0
 10
59.1114
 20
5.47601
 11
58.992
 21
5.32213
  0
LINE
  8
0
 10
58.992
 20
5.32213
 11
58.8826
 21
5.16106
  0
LINE
  8
0
 10
58.8826
 20
5.16106
 11
58.7834
 21
4.99342
  0
LINE
  8
0
 10
58.7834
 20
4.99342
 11
58.695
 21
4.81992
  0
LINE
  8
0
 10
58.695
 20
4.81992
 11
58.6177
 21
4.64117
  0
LINE
  8
0
 10
58.6177
 20
4.64117
 11
58.5517
 21
4.45795
  0
LINE
  8
0
 10
58.5517
 20
4.45795
 11
58.4974
 21
4.27094
  0
LINE
  8
0
 10
58.4974
 20
4.27094
 11
58.4549
 21
4.08087
  0
LINE
  8
0
 10
58.4549
 20
4.08087
 11
58.4244
 21
3.88852
  0
LINE
  8
0
 10
58.4244
 20
3.88852
 11
58.4061
 21
3.69464
  0
LINE
  8
0
 10
58.4061
 20
3.69464
 11
58.4
 21
3.5
  0
LINE
  8
0
 10
58.4
 20
3.5
 11
58.4061
 21
3.30534
  0
LINE
  8
0
 10
58.4061
 20
3.30534
 11
58.4244
 21
3.11147
  0
LINE
  8
0
 10
58.4244
 20
3.11147
 11
58.4549
 21
2.91911
  0
LINE
  8
0
 10
58.4549
 20
2.91911
 11
58.4974
 21
2.72905
  0
LINE
  8
0
 10
58.4974
 20
2.72905
 11
58.5517
 21
2.54204
  0
LINE
  8
0
 10
58.5517
 20
2.54204
 11
58.6177
 21
2.35881
  0
LINE
  8
0
 10
58.6177
 20
2.35881
 11
58.695
 21
2.18007
  0
LINE
  8
0
 10
58.695
 20
2.18007
 11
58.7834
 21
2.00656
  0
LINE
  8
0
 10
58.7834
 20
2.00656
 11
58.8826
 21
1.83893
  0
LINE
  8
0
 10
58.8826
 20
1.83893
 11
58.992
 21
1.67786
  0
LINE
  8
0
 10
58.992
 20
1.67786
 11
59.1114
 21
1.52397
  0
LINE
  8
0
 10
59.1114
 20
1.52397
 11
59.2402
 21
1.3779
  0
LINE
  8
0
 10
59.2402
 20
1.3779
 11
59.3779
 21
1.24019
  0
LINE
  8
0
 10
59.3779
 20
1.24019
 11
59.524
 21
1.1114
  0
LINE
  8
0
 10
59.524
 20
1.1114
 11
59.6779
 21
0.992035
  0
LINE
  8
0
 10
59.6779
 20
0.992035
 11
59.8389
 21
0.882568
  0
LINE
  8
0
 10
59.8389
 20
0.882568
 11
60.0066
 21
0.783447
  0
LINE
  8
0
 10
60.0066
 20
0.783447
 11
60.1801
 21
0.695023
  0
LINE
  8
0
 10
60.1801
 20
0.695023
 11
60.3588
 21
0.617691
  0
LINE
  8
0
 10
60.3588
 20
0.617691
 11
60.542
 21
0.551712
  0
LINE
  8
0
 10
60.542
 20
0.551712
 11
60.729
 21
0.497391
  0
LINE
  8
0
 10
60.729
 20
0.497391
 11
60.9191
 21
0.454895
  0
LINE
  8
0
 10
60.9191
 20
0.454895
 11
61.1115
 21
0.424438
  0
LINE
  8
0
 10
61.1115
 20
0.424438
 11
61.3053
 21
0.406113
  0
LINE
  8
0
 10
61.3053
 20
0.406113
 11
61.5
 21
0.399994
  0
LINE
  8
0
 10
61.5
 20
0.399994
 11
61.6946
 21
0.406113
  0
ENDSEC
  0
SECTION
  2
OBJECTS
  0
DICTIONARY
  0
ENDSEC
  0
EOF
